<svg width="48" height="49" viewBox="0 0 48 49" fill="none" xmlns="http://www.w3.org/2000/svg">
<path d="M13.8391 13.0043H15.8097H17.5833H29.8014H31.575H33.5457L35.3193 9.6542C35.9105 8.66886 35.9105 7.48647 35.3193 6.50114C34.7281 5.31874 33.5457 4.72754 32.3633 4.72754H15.0215C13.8391 4.72754 12.6567 5.31874 12.0655 6.30407C11.4743 7.2894 11.4743 8.4718 12.0655 9.45713L13.8391 13.0043Z" fill="black"/>
<path d="M40.6399 24.434L34.1368 16.1572H31.969H29.8013H17.3861H15.2184H13.2478L6.74457 24.434C3.59151 28.3753 3.19738 33.6961 5.75924 38.0316C7.7299 41.7758 11.8683 44.1406 16.2038 44.1406H31.3778C35.7133 44.1406 39.8517 41.7758 42.0194 38.0316C44.1871 33.6961 43.793 28.3753 40.6399 24.434Z" fill="black"/>
<mask id="mask0_195_66" style="mask-type:alpha" maskUnits="userSpaceOnUse" x="11" y="18" width="25" height="25">
<path d="M23.7627 20.1484C18.2627 20.1484 13.7627 24.6484 13.7627 30.1484C13.7627 35.6484 18.2627 40.1484 23.7627 40.1484C29.2627 40.1484 33.7627 35.6484 33.7627 30.1484C33.7627 24.6484 29.2627 20.1484 23.7627 20.1484ZM23.7627 38.1484C19.3627 38.1484 15.7627 34.5484 15.7627 30.1484C15.7627 25.7484 19.3627 22.1484 23.7627 22.1484C28.1627 22.1484 31.7627 25.7484 31.7627 30.1484C31.7627 34.5484 28.1627 38.1484 23.7627 38.1484Z" fill="black"/>
<path d="M25.0625 29.1482H22.4625C21.9625 29.1482 21.5625 28.7482 21.5625 28.2482C21.5625 27.7482 21.9625 27.3482 22.4625 27.3482H26.1625C26.7625 27.3482 27.1625 26.9482 27.1625 26.3482C27.1625 25.7482 26.7625 25.3482 26.1625 25.3482H24.7625V24.4482C24.7625 23.8482 24.3625 23.4482 23.7625 23.4482C23.1625 23.4482 22.7625 23.8482 22.7625 24.4482V25.3482H22.4625C20.8625 25.3482 19.5625 26.6482 19.5625 28.2482C19.5625 29.8482 20.8625 31.1482 22.4625 31.1482H24.9625C25.4625 31.1482 25.8625 31.5482 25.8625 32.0482C25.8625 32.5482 25.4625 32.9482 24.9625 32.9482H21.2625C20.6625 32.9482 20.2625 33.3482 20.2625 33.9482C20.2625 34.5482 20.6625 34.9482 21.2625 34.9482H22.7625V35.8482C22.7625 36.4482 23.1625 36.8482 23.7625 36.8482C24.3625 36.8482 24.7625 36.4482 24.7625 35.8482V34.9482H25.0625C26.6625 34.9482 27.9625 33.6482 27.9625 32.0482C27.9625 30.4482 26.6625 29.1482 25.0625 29.1482Z" fill="black"/>
</mask>
<g mask="url(#mask0_195_66)">
<rect x="6.20752" y="16.5127" width="29.5552" height="27.3018" fill="#F05802"/>
</g>
</svg>
