<svg width="51" height="51" viewBox="0 0 51 51" fill="none" xmlns="http://www.w3.org/2000/svg">
<g clip-path="url(#clip0_195_73)">
<path fill-rule="evenodd" clip-rule="evenodd" d="M6.10436 18.2066C5.52105 23.6264 5.54706 29.8771 6.35874 35.2748C6.80787 38.2615 9.24543 40.551 12.2543 40.8128L15.3989 41.086C21.9559 41.6561 28.5498 41.6561 35.1068 41.086L38.2514 40.8128C41.2604 40.551 43.698 38.2615 44.1471 35.2748C44.9587 29.8771 44.9848 23.6268 44.4013 18.2069C44.326 17.5786 44.2412 16.9511 44.1471 16.3247C43.698 13.338 41.2604 11.0483 38.2514 10.7868L35.1068 10.5134C28.5498 9.94344 21.9559 9.94344 15.3989 10.5134L12.2543 10.7868C9.24543 11.0483 6.80787 13.338 6.35874 16.3247C6.26456 16.951 6.17978 17.5784 6.10436 18.2066ZM15.6694 13.625C22.0463 13.0706 28.4594 13.0706 34.8364 13.625L37.9809 13.8983C39.5515 14.0349 40.8239 15.2301 41.0584 16.7891C41.0827 16.951 41.1065 17.113 41.1296 17.2751L29.5505 23.708C26.8778 25.1928 23.6279 25.1928 20.9552 23.708L9.37624 17.2752C9.39927 17.1131 9.42296 16.9511 9.4473 16.7891C9.68176 15.2301 10.9542 14.0349 12.5248 13.8983L15.6694 13.625ZM41.5117 20.6357C41.9156 25.3575 41.7644 30.1151 41.0584 34.8102C40.8239 36.3694 39.5515 37.5646 37.9809 37.7011L34.8364 37.9745C28.4594 38.5288 22.0463 38.5288 15.6694 37.9745L12.5248 37.7011C10.9542 37.5646 9.68176 36.3694 9.4473 34.8102C8.74125 30.1151 8.59017 25.3577 8.99405 20.6357L19.4384 26.4381C23.0545 28.447 27.4512 28.447 31.0672 26.4381L41.5117 20.6357Z" fill="black"/>
<mask id="mask0_195_73" style="mask-type:alpha" maskUnits="userSpaceOnUse" x="-7" y="12" width="42" height="39">
<path d="M2.22478 28.2976C5.48939 34.936 11.2984 40.2139 18.5204 43.0751L19.6781 43.5567C22.3269 44.6586 25.4404 43.8215 27.0558 41.5734L28.5687 39.4681C29.0607 38.7836 28.911 37.8616 28.2238 37.3441L23.093 33.4796C22.3395 32.912 21.2314 33.0443 20.6547 33.7705L19.0676 35.7702C14.9948 33.8944 11.6881 30.8073 9.67917 27.0048L11.8208 25.523C12.5988 24.9847 12.7404 23.9501 12.1324 23.2465L7.99318 18.4562C7.43894 17.8148 6.45175 17.6749 5.71861 18.1338L3.4481 19.5552C1.02513 21.072 0.133548 24.003 1.34088 26.4824L2.22345 28.2949L2.22478 28.2976Z" fill="black"/>
</mask>
<g mask="url(#mask0_195_73)">
<rect x="-9.67188" y="9.93457" width="48.9937" height="40.8526" fill="#F05802"/>
</g>
</g>
<defs>
<clipPath id="clip0_195_73">
<rect width="49.9727" height="49.9727" fill="white" transform="translate(0.266602 0.813477)"/>
</clipPath>
</defs>
</svg>
