<svg width="51" height="51" viewBox="0 0 51 51" fill="none" xmlns="http://www.w3.org/2000/svg">
<g clip-path="url(#clip0_195_62)">
<path d="M18.3394 25.0953C18.3394 21.3579 21.3692 18.3281 25.1065 18.3281C28.8438 18.3281 31.8736 21.3579 31.8736 25.0953C31.8736 28.8326 28.8438 31.8624 25.1065 31.8624C21.3692 31.8624 18.3394 28.8326 18.3394 25.0953Z" fill="#F05802"/>
<path fill-rule="evenodd" clip-rule="evenodd" d="M23.9833 3.9373C24.5971 3.30215 25.6153 3.30215 26.2291 3.9373L31.5852 9.47904H39.161C40.0235 9.47904 40.7227 10.1782 40.7227 11.0407V18.6165L46.2644 23.9726C46.8995 24.5864 46.8995 25.6046 46.2644 26.2184L40.7227 31.5745V39.1503C40.7227 40.0128 40.0235 40.712 39.161 40.712H31.5852L26.2291 46.2537C25.6153 46.8888 24.5971 46.8888 23.9833 46.2537L18.6272 40.712H11.0514C10.189 40.712 9.48978 40.0128 9.48978 39.1503V31.5745L3.94804 26.2184C3.31289 25.6046 3.31289 24.5864 3.94804 23.9726L9.48978 18.6165V11.0407C9.48978 10.1782 10.1889 9.47904 11.0514 9.47904H18.6273L23.9833 3.9373ZM25.1062 15.2051C19.6439 15.2051 15.2158 19.6332 15.2158 25.0955C15.2158 30.5579 19.6439 34.9859 25.1062 34.9859C30.5686 34.9859 34.9966 30.5579 34.9966 25.0955C34.9966 19.6332 30.5686 15.2051 25.1062 15.2051Z" fill="black"/>
<mask id="mask0_195_62" style="mask-type:alpha" maskUnits="userSpaceOnUse" x="26" y="26" width="25" height="25">
<path fill-rule="evenodd" clip-rule="evenodd" d="M38.0925 29.1615L35.8797 31.451C35.6442 31.6947 35.3198 31.8323 34.9809 31.8323H31.8425V34.9707C31.8425 35.3096 31.7049 35.634 31.4612 35.8695L29.1717 38.0823L31.4612 40.2951C31.7049 40.5306 31.8425 40.855 31.8425 41.1939V44.3323H34.9809C35.3198 44.3323 35.6442 44.4699 35.8797 44.7136L38.0925 47.0031L40.3053 44.7136C40.5408 44.4699 40.8652 44.3323 41.2041 44.3323H44.3425V41.1939C44.3425 40.855 44.4801 40.5306 44.7238 40.2951L47.0133 38.0823L44.7238 35.8695C44.4801 35.634 44.3425 35.3096 44.3425 34.9707V31.8323H41.2041C40.8652 31.8323 40.5408 31.6947 40.3053 31.451L38.0925 29.1615ZM37.1937 27.9331C37.6851 27.4247 38.4999 27.4247 38.9913 27.9331L41.3102 30.3323H44.5925C45.2829 30.3323 45.8425 30.8919 45.8425 31.5823V34.8646L48.2417 37.1835C48.7501 37.6749 48.7501 38.4897 48.2417 38.9811L45.8425 41.3V44.5823C45.8425 45.2727 45.2829 45.8323 44.5925 45.8323H41.3102L38.9913 48.2315C38.4999 48.7399 37.6851 48.7399 37.1937 48.2315L34.8749 45.8323H31.5925C30.9022 45.8323 30.3425 45.2727 30.3425 44.5823V41.3L27.9433 38.9811C27.4349 38.4897 27.4349 37.6749 27.9433 37.1835L30.3425 34.8646V31.5823C30.3425 30.8919 30.9022 30.3323 31.5925 30.3323H34.8749L37.1937 27.9331Z" fill="black"/>
<path fill-rule="evenodd" clip-rule="evenodd" d="M33.3428 38.082C33.3428 35.4587 35.4694 33.332 38.0928 33.332C40.7162 33.332 42.8428 35.4587 42.8428 38.082C42.8428 40.7054 40.7162 42.832 38.0928 42.832C35.4694 42.832 33.3428 40.7054 33.3428 38.082ZM38.0928 34.832C36.2979 34.832 34.8428 36.2871 34.8428 38.082C34.8428 39.8769 36.2979 41.332 38.0928 41.332C39.8877 41.332 41.3428 39.8769 41.3428 38.082C41.3428 36.2871 39.8877 34.832 38.0928 34.832Z" fill="black"/>
</mask>
<g mask="url(#mask0_195_62)">
<rect x="22.4614" y="21.6934" width="31.2222" height="32.2012" fill="#F05802"/>
</g>
</g>
<defs>
<clipPath id="clip0_195_62">
<rect width="49.9727" height="49.9727" fill="white" transform="translate(0.120117 0.109375)"/>
</clipPath>
</defs>
</svg>
