<svg width="369" height="339" viewBox="0 0 369 339" fill="none" xmlns="http://www.w3.org/2000/svg">
<mask id="mask0_219_17" style="mask-type:alpha" maskUnits="userSpaceOnUse" x="0" y="0" width="369" height="339">
<rect x="0.450928" y="0.317383" width="368.337" height="338.666" fill="#D9D9D9"/>
</mask>
<g mask="url(#mask0_219_17)">
<mask id="mask1_219_17" style="mask-type:alpha" maskUnits="userSpaceOnUse" x="105" y="98" width="151" height="232">
<path d="M247.858 170.066H239.655C238.288 165.184 236.92 160.887 235.553 157.176C234.381 153.465 232.917 150.145 231.159 147.215C229.596 144.09 227.838 141.355 225.885 139.012C223.932 136.473 221.686 133.836 219.147 131.102C207.428 118.797 193.756 112.645 178.131 112.645C167.78 112.645 159.381 115.379 152.936 120.848C146.686 126.316 143.561 133.738 143.561 143.113C143.561 152.293 147.37 160.887 154.987 168.895C162.604 176.902 175.104 185.691 192.487 195.262C214.752 207.371 230.768 219.188 240.534 230.711C250.495 242.234 255.475 254.832 255.475 268.504C255.475 277.098 253.717 285.105 250.202 292.527C246.686 299.949 241.901 306.395 235.846 311.863C229.792 317.332 222.565 321.629 214.167 324.754C205.768 327.879 196.784 329.441 187.213 329.441C180.377 329.441 173.639 328.855 166.999 327.684C160.358 326.512 153.913 324.559 147.663 321.824C144.342 320.652 141.315 319.773 138.581 319.188C135.846 318.406 133.6 318.016 131.842 318.016C129.303 318.016 127.155 319.09 125.397 321.238C123.639 323.387 122.663 326.023 122.467 329.148H115.143L105.182 258.25H112.799C121.198 278.758 130.768 293.797 141.51 303.367C152.252 312.742 165.241 317.43 180.475 317.43C192.78 317.43 202.643 314.012 210.065 307.176C217.682 300.34 221.491 291.355 221.491 280.223C221.491 275.926 221.002 272.117 220.026 268.797C219.245 265.477 218.073 262.645 216.51 260.301C212.604 254.051 206.354 247.605 197.76 240.965C189.362 234.324 179.206 227.684 167.292 221.043C157.917 216.16 149.909 211.277 143.268 206.395C136.627 201.512 131.159 196.434 126.862 191.16C122.76 185.887 119.733 180.418 117.78 174.754C115.827 169.09 114.85 162.938 114.85 156.297C114.85 137.742 121.295 123.289 134.186 112.938C139.655 108.445 145.709 105.027 152.35 102.684C158.991 100.145 165.534 98.875 171.979 98.875C177.838 98.875 183.698 99.5586 189.557 100.926C195.612 102.098 201.764 103.855 208.014 106.199C211.139 107.566 213.971 108.543 216.51 109.129C219.049 109.715 221.198 110.008 222.956 110.008C228.424 110.008 231.94 106.297 233.502 98.875H240.534L247.858 170.066Z" fill="white"/>
<path d="M247.858 170.066H239.655C238.288 165.184 236.92 160.887 235.553 157.176C234.381 153.465 232.917 150.145 231.159 147.215C229.596 144.09 227.838 141.355 225.885 139.012C223.932 136.473 221.686 133.836 219.147 131.102C207.428 118.797 193.756 112.645 178.131 112.645C167.78 112.645 159.381 115.379 152.936 120.848C146.686 126.316 143.561 133.738 143.561 143.113C143.561 152.293 147.37 160.887 154.987 168.895C162.604 176.902 175.104 185.691 192.487 195.262C214.752 207.371 230.768 219.188 240.534 230.711C250.495 242.234 255.475 254.832 255.475 268.504C255.475 277.098 253.717 285.105 250.202 292.527C246.686 299.949 241.901 306.395 235.846 311.863C229.792 317.332 222.565 321.629 214.167 324.754C205.768 327.879 196.784 329.441 187.213 329.441C180.377 329.441 173.639 328.855 166.999 327.684C160.358 326.512 153.913 324.559 147.663 321.824C144.342 320.652 141.315 319.773 138.581 319.188C135.846 318.406 133.6 318.016 131.842 318.016C129.303 318.016 127.155 319.09 125.397 321.238C123.639 323.387 122.663 326.023 122.467 329.148H115.143L105.182 258.25H112.799C121.198 278.758 130.768 293.797 141.51 303.367C152.252 312.742 165.241 317.43 180.475 317.43C192.78 317.43 202.643 314.012 210.065 307.176C217.682 300.34 221.491 291.355 221.491 280.223C221.491 275.926 221.002 272.117 220.026 268.797C219.245 265.477 218.073 262.645 216.51 260.301C212.604 254.051 206.354 247.605 197.76 240.965C189.362 234.324 179.206 227.684 167.292 221.043C157.917 216.16 149.909 211.277 143.268 206.395C136.627 201.512 131.159 196.434 126.862 191.16C122.76 185.887 119.733 180.418 117.78 174.754C115.827 169.09 114.85 162.938 114.85 156.297C114.85 137.742 121.295 123.289 134.186 112.938C139.655 108.445 145.709 105.027 152.35 102.684C158.991 100.145 165.534 98.875 171.979 98.875C177.838 98.875 183.698 99.5586 189.557 100.926C195.612 102.098 201.764 103.855 208.014 106.199C211.139 107.566 213.971 108.543 216.51 109.129C219.049 109.715 221.198 110.008 222.956 110.008C228.424 110.008 231.94 106.297 233.502 98.875H240.534L247.858 170.066Z" fill="white"/>
<path d="M247.858 170.066H239.655C238.288 165.184 236.92 160.887 235.553 157.176C234.381 153.465 232.917 150.145 231.159 147.215C229.596 144.09 227.838 141.355 225.885 139.012C223.932 136.473 221.686 133.836 219.147 131.102C207.428 118.797 193.756 112.645 178.131 112.645C167.78 112.645 159.381 115.379 152.936 120.848C146.686 126.316 143.561 133.738 143.561 143.113C143.561 152.293 147.37 160.887 154.987 168.895C162.604 176.902 175.104 185.691 192.487 195.262C214.752 207.371 230.768 219.188 240.534 230.711C250.495 242.234 255.475 254.832 255.475 268.504C255.475 277.098 253.717 285.105 250.202 292.527C246.686 299.949 241.901 306.395 235.846 311.863C229.792 317.332 222.565 321.629 214.167 324.754C205.768 327.879 196.784 329.441 187.213 329.441C180.377 329.441 173.639 328.855 166.999 327.684C160.358 326.512 153.913 324.559 147.663 321.824C144.342 320.652 141.315 319.773 138.581 319.188C135.846 318.406 133.6 318.016 131.842 318.016C129.303 318.016 127.155 319.09 125.397 321.238C123.639 323.387 122.663 326.023 122.467 329.148H115.143L105.182 258.25H112.799C121.198 278.758 130.768 293.797 141.51 303.367C152.252 312.742 165.241 317.43 180.475 317.43C192.78 317.43 202.643 314.012 210.065 307.176C217.682 300.34 221.491 291.355 221.491 280.223C221.491 275.926 221.002 272.117 220.026 268.797C219.245 265.477 218.073 262.645 216.51 260.301C212.604 254.051 206.354 247.605 197.76 240.965C189.362 234.324 179.206 227.684 167.292 221.043C157.917 216.16 149.909 211.277 143.268 206.395C136.627 201.512 131.159 196.434 126.862 191.16C122.76 185.887 119.733 180.418 117.78 174.754C115.827 169.09 114.85 162.938 114.85 156.297C114.85 137.742 121.295 123.289 134.186 112.938C139.655 108.445 145.709 105.027 152.35 102.684C158.991 100.145 165.534 98.875 171.979 98.875C177.838 98.875 183.698 99.5586 189.557 100.926C195.612 102.098 201.764 103.855 208.014 106.199C211.139 107.566 213.971 108.543 216.51 109.129C219.049 109.715 221.198 110.008 222.956 110.008C228.424 110.008 231.94 106.297 233.502 98.875H240.534L247.858 170.066Z" fill="white"/>
</mask>
<g mask="url(#mask1_219_17)">
<rect x="-0.869385" y="85.2598" width="400.01" height="114.494" fill="#002D62"/>
<rect x="-0.869385" y="85.2598" width="400.01" height="114.494" fill="#002D62"/>
<rect x="-0.869385" y="85.2598" width="400.01" height="114.494" fill="#002D62"/>
<rect x="-0.869385" y="237.528" width="400.01" height="103.283" fill="#002D62"/>
<rect x="-0.869385" y="237.528" width="400.01" height="103.283" fill="#002D62"/>
<rect x="-0.869385" y="237.528" width="400.01" height="103.283" fill="#002D62"/>
</g>
<path d="M35.2935 214.409H34.4731C34.3364 213.921 34.1997 213.491 34.063 213.12C33.9458 212.749 33.7993 212.417 33.6235 212.124C33.4673 211.812 33.2915 211.538 33.0962 211.304C32.9009 211.05 32.6763 210.786 32.4224 210.513C31.2505 209.282 29.8833 208.667 28.3208 208.667C27.2856 208.667 26.4458 208.94 25.8013 209.487C25.1763 210.034 24.8638 210.776 24.8638 211.714C24.8638 212.632 25.2446 213.491 26.0063 214.292C26.7681 215.093 28.0181 215.972 29.7563 216.929C31.9829 218.14 33.5845 219.321 34.561 220.474C35.5571 221.626 36.0552 222.886 36.0552 224.253C36.0552 225.112 35.8794 225.913 35.5278 226.655C35.1763 227.397 34.6978 228.042 34.0923 228.589C33.4868 229.136 32.7642 229.565 31.9243 229.878C31.0845 230.19 30.186 230.347 29.229 230.347C28.5454 230.347 27.8716 230.288 27.2075 230.171C26.5435 230.054 25.8989 229.858 25.2739 229.585C24.9419 229.468 24.6392 229.38 24.3657 229.321C24.0923 229.243 23.8677 229.204 23.6919 229.204C23.438 229.204 23.2231 229.312 23.0474 229.526C22.8716 229.741 22.7739 230.005 22.7544 230.317H22.022L21.0259 223.228H21.7876C22.6274 225.278 23.5845 226.782 24.6587 227.739C25.7329 228.677 27.0317 229.146 28.5552 229.146C29.7856 229.146 30.772 228.804 31.5142 228.12C32.2759 227.437 32.6567 226.538 32.6567 225.425C32.6567 224.995 32.6079 224.614 32.5103 224.282C32.4321 223.95 32.3149 223.667 32.1587 223.433C31.7681 222.808 31.1431 222.163 30.2837 221.499C29.4438 220.835 28.4282 220.171 27.2368 219.507C26.2993 219.019 25.4985 218.53 24.8345 218.042C24.1704 217.554 23.6235 217.046 23.1938 216.519C22.7837 215.991 22.481 215.444 22.2856 214.878C22.0903 214.312 21.9927 213.696 21.9927 213.032C21.9927 211.177 22.6372 209.731 23.9263 208.696C24.4731 208.247 25.0786 207.905 25.7427 207.671C26.4067 207.417 27.061 207.29 27.7056 207.29C28.2915 207.29 28.8774 207.358 29.4634 207.495C30.0688 207.612 30.6841 207.788 31.3091 208.022C31.6216 208.159 31.9048 208.257 32.1587 208.315C32.4126 208.374 32.6274 208.403 32.8032 208.403C33.3501 208.403 33.7017 208.032 33.8579 207.29H34.561L35.2935 214.409ZM42.061 211.392C42.061 210.767 42.022 210.269 41.9438 209.897C41.8853 209.526 41.7388 209.233 41.5044 209.019C41.27 208.804 40.938 208.657 40.5083 208.579C40.0786 208.501 39.5122 208.442 38.8091 208.403V207.729H48.7407V208.403C48.0376 208.423 47.4712 208.481 47.0415 208.579C46.6118 208.657 46.2798 208.804 46.0454 209.019C45.811 209.233 45.6548 209.536 45.5767 209.927C45.4985 210.298 45.4595 210.786 45.4595 211.392V226.274C45.4595 226.88 45.4985 227.378 45.5767 227.769C45.6743 228.14 45.8403 228.433 46.0747 228.647C46.3091 228.862 46.6411 229.019 47.0708 229.116C47.5005 229.194 48.0571 229.243 48.7407 229.263V229.878H38.8091V229.263C39.5122 229.243 40.0786 229.194 40.5083 229.116C40.938 229.019 41.2603 228.862 41.4751 228.647C41.7095 228.433 41.8657 228.14 41.9438 227.769C42.022 227.397 42.061 226.899 42.061 226.274V211.392ZM69.3657 214.819C69.2095 214.272 69.0532 213.804 68.897 213.413C68.7407 213.003 68.5747 212.642 68.3989 212.329C68.2427 211.997 68.0571 211.704 67.8423 211.45C67.647 211.196 67.4126 210.933 67.1392 210.659C66.4751 209.976 65.7134 209.468 64.854 209.136C64.0142 208.784 63.1157 208.608 62.1587 208.608C60.9478 208.608 59.8442 208.843 58.8481 209.312C57.8716 209.78 57.0317 210.454 56.3286 211.333C55.645 212.192 55.1177 213.237 54.7466 214.468C54.3755 215.698 54.1899 217.065 54.1899 218.569C54.1899 220.522 54.4536 222.231 54.981 223.696C55.5083 225.161 56.2603 226.304 57.2368 227.124C58.7017 228.296 60.4497 228.882 62.481 228.882C63.8677 228.882 65.147 228.618 66.3188 228.091C67.4907 227.563 68.7017 226.704 69.9517 225.513L70.5376 226.099C69.522 227.446 68.2231 228.491 66.6411 229.233C65.0786 229.976 63.3403 230.347 61.4263 230.347C59.7661 230.347 58.2524 230.073 56.8853 229.526C55.5181 228.979 54.3462 228.218 53.3696 227.241C52.3931 226.245 51.6313 225.054 51.0845 223.667C50.5571 222.28 50.2935 220.737 50.2935 219.038C50.2935 217.104 50.6255 215.366 51.2896 213.823C51.9536 212.261 52.9302 210.952 54.2192 209.897C55.2349 209.077 56.3774 208.442 57.647 207.993C58.9165 207.524 60.1958 207.29 61.4849 207.29C63.145 207.29 64.7856 207.563 66.4067 208.11C66.9536 208.306 67.3931 208.403 67.7251 208.403C68.0571 208.403 68.3403 208.306 68.5747 208.11C68.8286 207.915 69.0044 207.642 69.1021 207.29H69.8052L70.1274 214.819H69.3657ZM88.8188 217.896V211.392C88.8188 210.786 88.7798 210.308 88.7017 209.956C88.6431 209.585 88.5063 209.292 88.2915 209.077C88.0962 208.862 87.8032 208.716 87.4126 208.638C87.022 208.54 86.5044 208.462 85.8599 208.403V207.729H95.147V208.403C94.5024 208.462 93.9849 208.54 93.5942 208.638C93.2036 208.716 92.9009 208.862 92.686 209.077C92.4907 209.292 92.3638 209.585 92.3052 209.956C92.2466 210.308 92.2173 210.786 92.2173 211.392V226.274C92.2173 226.86 92.2466 227.339 92.3052 227.71C92.3833 228.062 92.5298 228.345 92.7446 228.56C92.9595 228.774 93.2524 228.931 93.6235 229.028C94.0142 229.126 94.522 229.204 95.147 229.263V229.878H85.8599V229.263C86.5044 229.224 87.022 229.165 87.4126 229.087C87.8032 228.989 88.0962 228.823 88.2915 228.589C88.5063 228.335 88.6431 227.993 88.7017 227.563C88.7798 227.134 88.8188 226.567 88.8188 225.864V219.36H78.6528V226.274C78.6528 226.86 78.6821 227.339 78.7407 227.71C78.8188 228.062 78.9653 228.345 79.1802 228.56C79.395 228.774 79.6978 228.931 80.0884 229.028C80.479 229.126 80.9868 229.204 81.6118 229.263V229.878H72.2954V229.263C72.9595 229.224 73.4868 229.165 73.8774 229.087C74.2681 228.989 74.561 228.823 74.7563 228.589C74.9712 228.335 75.1079 227.993 75.1665 227.563C75.2251 227.134 75.2544 226.567 75.2544 225.864V211.392C75.2544 210.786 75.2153 210.308 75.1372 209.956C75.0786 209.585 74.9419 209.292 74.7271 209.077C74.5317 208.862 74.2388 208.716 73.8481 208.638C73.4575 208.54 72.9399 208.462 72.2954 208.403V207.729H81.6118V208.403C80.9673 208.462 80.4497 208.54 80.0591 208.638C79.6685 208.716 79.3657 208.862 79.1509 209.077C78.9556 209.292 78.8188 209.585 78.7407 209.956C78.6821 210.308 78.6528 210.786 78.6528 211.392V217.896H88.8188ZM114.278 229.878H96.231V229.263C96.8364 229.224 97.3247 229.155 97.6958 229.058C98.0864 228.96 98.3794 228.804 98.5747 228.589C98.7896 228.374 98.936 228.081 99.0142 227.71C99.0923 227.339 99.1313 226.86 99.1313 226.274V211.392C99.1313 210.806 99.0923 210.327 99.0142 209.956C98.9556 209.585 98.8188 209.292 98.604 209.077C98.3892 208.862 98.0864 208.706 97.6958 208.608C97.3247 208.511 96.8364 208.442 96.231 208.403V207.729H113.985L114.043 212.534H113.252C113.096 211.772 112.92 211.167 112.725 210.718C112.53 210.249 112.247 209.888 111.875 209.634C111.524 209.38 111.045 209.214 110.44 209.136C109.854 209.058 109.092 209.019 108.155 209.019H103.643C103.194 209.019 102.891 209.087 102.735 209.224C102.598 209.36 102.53 209.673 102.53 210.161V217.573H107.657C108.34 217.573 108.897 217.534 109.327 217.456C109.756 217.378 110.098 217.231 110.352 217.017C110.625 216.782 110.831 216.46 110.967 216.05C111.104 215.64 111.231 215.093 111.348 214.409H112.139V222.173H111.348C111.231 221.47 111.104 220.913 110.967 220.503C110.831 220.073 110.635 219.751 110.381 219.536C110.127 219.302 109.786 219.146 109.356 219.067C108.926 218.989 108.36 218.95 107.657 218.95H102.53V227.212C102.53 227.544 102.549 227.788 102.588 227.944C102.627 228.101 102.696 228.218 102.793 228.296C102.95 228.394 103.321 228.481 103.907 228.56C104.512 228.618 105.225 228.647 106.045 228.647H106.983C108.174 228.647 109.17 228.589 109.971 228.472C110.792 228.354 111.485 228.13 112.051 227.798C112.637 227.466 113.145 227.017 113.575 226.45C114.004 225.884 114.424 225.142 114.834 224.224H115.801L114.278 229.878ZM138.272 229.878H132.881L124.913 219.565L123.067 219.653V226.274C123.067 226.86 123.096 227.339 123.155 227.71C123.233 228.081 123.379 228.384 123.594 228.618C123.809 228.833 124.112 228.989 124.502 229.087C124.893 229.165 125.411 229.224 126.055 229.263V229.878H116.797V229.263C117.422 229.204 117.92 229.126 118.292 229.028C118.682 228.931 118.975 228.765 119.17 228.53C119.366 228.296 119.493 227.974 119.551 227.563C119.61 227.134 119.639 226.567 119.639 225.864V211.392C119.639 210.806 119.61 210.337 119.551 209.985C119.493 209.614 119.366 209.321 119.17 209.106C118.975 208.892 118.682 208.735 118.292 208.638C117.92 208.54 117.422 208.462 116.797 208.403V207.729H126.026C127.667 207.729 129.131 207.954 130.42 208.403C131.729 208.833 132.696 209.419 133.321 210.161C133.731 210.61 134.034 211.138 134.229 211.743C134.424 212.329 134.522 212.964 134.522 213.647C134.522 215.171 134.043 216.372 133.086 217.251C132.149 218.13 130.616 218.784 128.487 219.214L135.372 227.71C135.84 228.257 136.28 228.638 136.69 228.853C137.12 229.067 137.647 229.204 138.272 229.263V229.878ZM123.067 218.423C123.848 218.403 124.522 218.374 125.088 218.335C125.674 218.296 126.182 218.237 126.612 218.159C127.061 218.062 127.471 217.944 127.842 217.808C128.213 217.671 128.594 217.495 128.985 217.28C129.59 216.948 130.059 216.46 130.391 215.815C130.723 215.151 130.889 214.399 130.889 213.56C130.889 211.978 130.391 210.825 129.395 210.103C128.418 209.36 126.856 208.989 124.708 208.989C124.043 208.989 123.604 209.077 123.389 209.253C123.174 209.409 123.067 209.722 123.067 210.19V218.423ZM162.208 229.878H153.682V229.263C153.975 229.263 154.219 229.263 154.415 229.263C154.61 229.243 154.766 229.224 154.883 229.204C155.02 229.165 155.137 229.136 155.235 229.116C155.333 229.077 155.43 229.028 155.528 228.97C155.684 228.872 155.801 228.755 155.879 228.618C155.977 228.462 156.026 228.306 156.026 228.149C156.026 227.603 155.811 226.841 155.381 225.864L153.975 222.671H145.245L143.692 226.567C143.614 226.782 143.545 227.007 143.487 227.241C143.448 227.456 143.428 227.671 143.428 227.886C143.428 228.335 143.604 228.677 143.956 228.911C144.307 229.146 144.893 229.263 145.713 229.263V229.878H139.063V229.263C139.473 229.243 139.825 229.175 140.118 229.058C140.411 228.94 140.704 228.696 140.997 228.325C141.29 227.935 141.602 227.388 141.934 226.685C142.286 225.962 142.725 224.985 143.252 223.755L150.196 207.349H150.84L159.19 226.333C159.463 226.958 159.698 227.456 159.893 227.827C160.108 228.198 160.323 228.491 160.538 228.706C160.752 228.901 160.987 229.038 161.241 229.116C161.514 229.194 161.836 229.243 162.208 229.263V229.878ZM153.536 221.323L149.668 212.095L145.801 221.323H153.536ZM182.334 230.259L167.54 211.86V224.956C167.54 225.815 167.579 226.519 167.657 227.065C167.754 227.593 167.92 228.013 168.155 228.325C168.389 228.638 168.711 228.862 169.122 228.999C169.532 229.136 170.059 229.224 170.704 229.263V229.878H162.852V229.263C163.536 229.204 164.083 229.116 164.493 228.999C164.922 228.862 165.245 228.638 165.459 228.325C165.694 228.013 165.85 227.593 165.928 227.065C166.006 226.519 166.045 225.815 166.045 224.956V210.249C165.713 209.858 165.43 209.546 165.196 209.312C164.961 209.058 164.727 208.872 164.493 208.755C164.258 208.618 164.014 208.53 163.76 208.491C163.506 208.433 163.204 208.403 162.852 208.403V207.729H168.565L181.426 223.931V212.651C181.426 210.62 181.104 209.37 180.459 208.901C180.206 208.745 179.922 208.638 179.61 208.579C179.317 208.501 178.858 208.442 178.233 208.403V207.729H186.055V208.403C185.43 208.442 184.961 208.511 184.649 208.608C184.356 208.706 184.102 208.833 183.887 208.989C183.223 209.419 182.891 210.64 182.891 212.651V230.259H182.334ZM206.592 224.077L204.952 229.878H186.993V229.263C187.598 229.224 188.086 229.155 188.458 229.058C188.848 228.96 189.141 228.804 189.336 228.589C189.551 228.374 189.698 228.081 189.776 227.71C189.854 227.339 189.893 226.86 189.893 226.274V211.392C189.893 210.806 189.854 210.327 189.776 209.956C189.717 209.585 189.581 209.292 189.366 209.077C189.151 208.862 188.848 208.706 188.458 208.608C188.086 208.511 187.598 208.442 186.993 208.403V207.729H196.397V208.403C195.733 208.442 195.196 208.511 194.786 208.608C194.375 208.687 194.063 208.843 193.848 209.077C193.633 209.292 193.487 209.585 193.409 209.956C193.331 210.327 193.292 210.806 193.292 211.392V227.212C193.292 227.505 193.321 227.749 193.379 227.944C193.458 228.12 193.604 228.257 193.819 228.354C194.034 228.452 194.327 228.521 194.698 228.56C195.069 228.579 195.567 228.589 196.192 228.589H198.418C199.844 228.589 201.026 228.423 201.963 228.091C202.92 227.759 203.702 227.251 204.307 226.567C204.542 226.294 204.766 225.952 204.981 225.542C205.215 225.132 205.469 224.644 205.743 224.077H206.592ZM225.459 229.878H207.413V229.263C208.018 229.224 208.506 229.155 208.877 229.058C209.268 228.96 209.561 228.804 209.756 228.589C209.971 228.374 210.118 228.081 210.196 227.71C210.274 227.339 210.313 226.86 210.313 226.274V211.392C210.313 210.806 210.274 210.327 210.196 209.956C210.137 209.585 210 209.292 209.786 209.077C209.571 208.862 209.268 208.706 208.877 208.608C208.506 208.511 208.018 208.442 207.413 208.403V207.729H225.167L225.225 212.534H224.434C224.278 211.772 224.102 211.167 223.907 210.718C223.711 210.249 223.428 209.888 223.057 209.634C222.706 209.38 222.227 209.214 221.622 209.136C221.036 209.058 220.274 209.019 219.336 209.019H214.825C214.375 209.019 214.073 209.087 213.917 209.224C213.78 209.36 213.711 209.673 213.711 210.161V217.573H218.838C219.522 217.573 220.079 217.534 220.508 217.456C220.938 217.378 221.28 217.231 221.534 217.017C221.807 216.782 222.012 216.46 222.149 216.05C222.286 215.64 222.413 215.093 222.53 214.409H223.321V222.173H222.53C222.413 221.47 222.286 220.913 222.149 220.503C222.012 220.073 221.817 219.751 221.563 219.536C221.309 219.302 220.967 219.146 220.538 219.067C220.108 218.989 219.542 218.95 218.838 218.95H213.711V227.212C213.711 227.544 213.731 227.788 213.77 227.944C213.809 228.101 213.877 228.218 213.975 228.296C214.131 228.394 214.502 228.481 215.088 228.56C215.694 228.618 216.407 228.647 217.227 228.647H218.165C219.356 228.647 220.352 228.589 221.153 228.472C221.973 228.354 222.667 228.13 223.233 227.798C223.819 227.466 224.327 227.017 224.756 226.45C225.186 225.884 225.606 225.142 226.016 224.224H226.983L225.459 229.878ZM251.124 218.657C250.635 218.696 250.235 218.765 249.922 218.862C249.629 218.94 249.395 219.077 249.219 219.272C249.063 219.448 248.956 219.702 248.897 220.034C248.838 220.347 248.809 220.747 248.809 221.235V228.003C248.477 228.296 247.989 228.589 247.344 228.882C246.7 229.155 245.977 229.409 245.176 229.644C244.395 229.858 243.584 230.024 242.745 230.142C241.924 230.278 241.153 230.347 240.43 230.347C238.575 230.347 236.856 230.044 235.274 229.438C233.711 228.833 232.374 227.944 231.26 226.772C230.323 225.776 229.629 224.644 229.18 223.374C228.731 222.104 228.506 220.659 228.506 219.038C228.506 217.319 228.79 215.747 229.356 214.321C229.922 212.876 230.704 211.636 231.7 210.601C232.715 209.565 233.917 208.755 235.303 208.169C236.709 207.583 238.252 207.29 239.932 207.29C241.456 207.29 242.979 207.544 244.502 208.052C245.147 208.286 245.645 208.403 245.997 208.403C246.348 208.403 246.661 208.296 246.934 208.081C247.208 207.866 247.393 207.603 247.491 207.29H248.194L248.487 214.351H247.725C247.51 213.843 247.315 213.403 247.139 213.032C246.963 212.642 246.778 212.3 246.583 212.007C246.407 211.694 246.221 211.421 246.026 211.187C245.831 210.933 245.606 210.688 245.352 210.454C244.024 209.224 242.413 208.608 240.518 208.608C239.307 208.608 238.184 208.843 237.149 209.312C236.133 209.78 235.264 210.454 234.542 211.333C233.858 212.173 233.311 213.286 232.901 214.673C232.491 216.04 232.286 217.476 232.286 218.979C232.286 220.542 232.491 221.948 232.901 223.198C233.311 224.429 233.897 225.474 234.659 226.333C235.42 227.192 236.338 227.856 237.413 228.325C238.506 228.794 239.737 229.028 241.104 229.028C241.709 229.028 242.276 228.979 242.803 228.882C243.35 228.765 243.829 228.618 244.239 228.442C244.649 228.267 244.971 228.062 245.206 227.827C245.44 227.573 245.557 227.31 245.557 227.036V221.616C245.557 221.011 245.528 220.522 245.469 220.151C245.411 219.78 245.274 219.497 245.059 219.302C244.864 219.087 244.571 218.94 244.18 218.862C243.79 218.765 243.262 218.696 242.598 218.657V218.042H251.124V218.657ZM270.02 229.878H251.973V229.263C252.579 229.224 253.067 229.155 253.438 229.058C253.829 228.96 254.122 228.804 254.317 228.589C254.532 228.374 254.678 228.081 254.756 227.71C254.834 227.339 254.874 226.86 254.874 226.274V211.392C254.874 210.806 254.834 210.327 254.756 209.956C254.698 209.585 254.561 209.292 254.346 209.077C254.131 208.862 253.829 208.706 253.438 208.608C253.067 208.511 252.579 208.442 251.973 208.403V207.729H269.727L269.786 212.534H268.995C268.838 211.772 268.663 211.167 268.467 210.718C268.272 210.249 267.989 209.888 267.618 209.634C267.266 209.38 266.788 209.214 266.182 209.136C265.596 209.058 264.834 209.019 263.897 209.019H259.385C258.936 209.019 258.633 209.087 258.477 209.224C258.34 209.36 258.272 209.673 258.272 210.161V217.573H263.399C264.083 217.573 264.639 217.534 265.069 217.456C265.499 217.378 265.84 217.231 266.094 217.017C266.368 216.782 266.573 216.46 266.709 216.05C266.846 215.64 266.973 215.093 267.09 214.409H267.881V222.173H267.09C266.973 221.47 266.846 220.913 266.709 220.503C266.573 220.073 266.377 219.751 266.124 219.536C265.87 219.302 265.528 219.146 265.098 219.067C264.668 218.989 264.102 218.95 263.399 218.95H258.272V227.212C258.272 227.544 258.292 227.788 258.331 227.944C258.37 228.101 258.438 228.218 258.536 228.296C258.692 228.394 259.063 228.481 259.649 228.56C260.254 228.618 260.967 228.647 261.788 228.647H262.725C263.917 228.647 264.913 228.589 265.713 228.472C266.534 228.354 267.227 228.13 267.793 227.798C268.379 227.466 268.887 227.017 269.317 226.45C269.747 225.884 270.167 225.142 270.577 224.224H271.543L270.02 229.878ZM291.875 230.259L277.081 211.86V224.956C277.081 225.815 277.12 226.519 277.198 227.065C277.295 227.593 277.461 228.013 277.696 228.325C277.93 228.638 278.252 228.862 278.663 228.999C279.073 229.136 279.6 229.224 280.245 229.263V229.878H272.393V229.263C273.077 229.204 273.624 229.116 274.034 228.999C274.463 228.862 274.786 228.638 275 228.325C275.235 228.013 275.391 227.593 275.469 227.065C275.547 226.519 275.586 225.815 275.586 224.956V210.249C275.254 209.858 274.971 209.546 274.737 209.312C274.502 209.058 274.268 208.872 274.034 208.755C273.799 208.618 273.555 208.53 273.301 208.491C273.047 208.433 272.745 208.403 272.393 208.403V207.729H278.106L290.967 223.931V212.651C290.967 210.62 290.645 209.37 290 208.901C289.747 208.745 289.463 208.638 289.151 208.579C288.858 208.501 288.399 208.442 287.774 208.403V207.729H295.596V208.403C294.971 208.442 294.502 208.511 294.19 208.608C293.897 208.706 293.643 208.833 293.428 208.989C292.764 209.419 292.432 210.64 292.432 212.651V230.259H291.875ZM300.342 226.567C300.811 226.567 301.231 226.753 301.602 227.124C301.993 227.495 302.188 227.935 302.188 228.442C302.188 228.931 301.993 229.36 301.602 229.731C301.231 230.083 300.792 230.259 300.284 230.259C299.776 230.259 299.336 230.083 298.965 229.731C298.614 229.36 298.438 228.921 298.438 228.413C298.438 227.886 298.624 227.446 298.995 227.095C299.366 226.743 299.815 226.567 300.342 226.567ZM322.93 229.878H304.883V229.263C305.489 229.224 305.977 229.155 306.348 229.058C306.739 228.96 307.032 228.804 307.227 228.589C307.442 228.374 307.588 228.081 307.667 227.71C307.745 227.339 307.784 226.86 307.784 226.274V211.392C307.784 210.806 307.745 210.327 307.667 209.956C307.608 209.585 307.471 209.292 307.256 209.077C307.042 208.862 306.739 208.706 306.348 208.608C305.977 208.511 305.489 208.442 304.883 208.403V207.729H322.637L322.696 212.534H321.905C321.749 211.772 321.573 211.167 321.377 210.718C321.182 210.249 320.899 209.888 320.528 209.634C320.176 209.38 319.698 209.214 319.092 209.136C318.506 209.058 317.745 209.019 316.807 209.019H312.295C311.846 209.019 311.543 209.087 311.387 209.224C311.25 209.36 311.182 209.673 311.182 210.161V217.573H316.309C316.993 217.573 317.549 217.534 317.979 217.456C318.409 217.378 318.75 217.231 319.004 217.017C319.278 216.782 319.483 216.46 319.62 216.05C319.756 215.64 319.883 215.093 320 214.409H320.792V222.173H320C319.883 221.47 319.756 220.913 319.62 220.503C319.483 220.073 319.288 219.751 319.034 219.536C318.78 219.302 318.438 219.146 318.008 219.067C317.579 218.989 317.012 218.95 316.309 218.95H311.182V227.212C311.182 227.544 311.202 227.788 311.241 227.944C311.28 228.101 311.348 228.218 311.446 228.296C311.602 228.394 311.973 228.481 312.559 228.56C313.165 228.618 313.877 228.647 314.698 228.647H315.635C316.827 228.647 317.823 228.589 318.624 228.472C319.444 228.354 320.137 228.13 320.704 227.798C321.29 227.466 321.797 227.017 322.227 226.45C322.657 225.884 323.077 225.142 323.487 224.224H324.454L322.93 229.878ZM345.313 221.382C345.313 222.671 345.225 223.745 345.049 224.604C344.893 225.444 344.62 226.216 344.229 226.919C342.901 229.204 340.401 230.347 336.729 230.347C333.877 230.347 331.768 229.653 330.401 228.267C329.034 226.88 328.35 224.731 328.35 221.821V211.392C328.35 210.786 328.311 210.298 328.233 209.927C328.174 209.556 328.038 209.263 327.823 209.048C327.627 208.833 327.334 208.687 326.944 208.608C326.553 208.511 326.026 208.442 325.362 208.403V207.729H334.825V208.403C334.141 208.462 333.594 208.54 333.184 208.638C332.793 208.716 332.491 208.862 332.276 209.077C332.061 209.292 331.915 209.585 331.836 209.956C331.778 210.308 331.749 210.786 331.749 211.392V222.085C331.749 223.14 331.817 224.009 331.954 224.692C332.09 225.376 332.305 225.981 332.598 226.509C333.516 228.091 335.157 228.882 337.52 228.882C338.79 228.882 339.922 228.647 340.918 228.179C341.915 227.71 342.637 227.075 343.086 226.274C343.36 225.747 343.545 225.142 343.643 224.458C343.76 223.755 343.819 222.827 343.819 221.675V212.651C343.819 211.812 343.78 211.128 343.702 210.601C343.624 210.073 343.467 209.653 343.233 209.341C343.018 209.028 342.706 208.804 342.295 208.667C341.905 208.53 341.387 208.442 340.743 208.403V207.729H348.477V208.403C347.793 208.481 347.237 208.589 346.807 208.726C346.397 208.862 346.075 209.077 345.84 209.37C345.625 209.663 345.479 210.073 345.401 210.601C345.342 211.128 345.313 211.812 345.313 212.651V221.382Z" fill="#002D62"/>
<path d="M35.2935 214.409H34.4731C34.3364 213.921 34.1997 213.491 34.063 213.12C33.9458 212.749 33.7993 212.417 33.6235 212.124C33.4673 211.812 33.2915 211.538 33.0962 211.304C32.9009 211.05 32.6763 210.786 32.4224 210.513C31.2505 209.282 29.8833 208.667 28.3208 208.667C27.2856 208.667 26.4458 208.94 25.8013 209.487C25.1763 210.034 24.8638 210.776 24.8638 211.714C24.8638 212.632 25.2446 213.491 26.0063 214.292C26.7681 215.093 28.0181 215.972 29.7563 216.929C31.9829 218.14 33.5845 219.321 34.561 220.474C35.5571 221.626 36.0552 222.886 36.0552 224.253C36.0552 225.112 35.8794 225.913 35.5278 226.655C35.1763 227.397 34.6978 228.042 34.0923 228.589C33.4868 229.136 32.7642 229.565 31.9243 229.878C31.0845 230.19 30.186 230.347 29.229 230.347C28.5454 230.347 27.8716 230.288 27.2075 230.171C26.5435 230.054 25.8989 229.858 25.2739 229.585C24.9419 229.468 24.6392 229.38 24.3657 229.321C24.0923 229.243 23.8677 229.204 23.6919 229.204C23.438 229.204 23.2231 229.312 23.0474 229.526C22.8716 229.741 22.7739 230.005 22.7544 230.317H22.022L21.0259 223.228H21.7876C22.6274 225.278 23.5845 226.782 24.6587 227.739C25.7329 228.677 27.0317 229.146 28.5552 229.146C29.7856 229.146 30.772 228.804 31.5142 228.12C32.2759 227.437 32.6567 226.538 32.6567 225.425C32.6567 224.995 32.6079 224.614 32.5103 224.282C32.4321 223.95 32.3149 223.667 32.1587 223.433C31.7681 222.808 31.1431 222.163 30.2837 221.499C29.4438 220.835 28.4282 220.171 27.2368 219.507C26.2993 219.019 25.4985 218.53 24.8345 218.042C24.1704 217.554 23.6235 217.046 23.1938 216.519C22.7837 215.991 22.481 215.444 22.2856 214.878C22.0903 214.312 21.9927 213.696 21.9927 213.032C21.9927 211.177 22.6372 209.731 23.9263 208.696C24.4731 208.247 25.0786 207.905 25.7427 207.671C26.4067 207.417 27.061 207.29 27.7056 207.29C28.2915 207.29 28.8774 207.358 29.4634 207.495C30.0688 207.612 30.6841 207.788 31.3091 208.022C31.6216 208.159 31.9048 208.257 32.1587 208.315C32.4126 208.374 32.6274 208.403 32.8032 208.403C33.3501 208.403 33.7017 208.032 33.8579 207.29H34.561L35.2935 214.409ZM42.061 211.392C42.061 210.767 42.022 210.269 41.9438 209.897C41.8853 209.526 41.7388 209.233 41.5044 209.019C41.27 208.804 40.938 208.657 40.5083 208.579C40.0786 208.501 39.5122 208.442 38.8091 208.403V207.729H48.7407V208.403C48.0376 208.423 47.4712 208.481 47.0415 208.579C46.6118 208.657 46.2798 208.804 46.0454 209.019C45.811 209.233 45.6548 209.536 45.5767 209.927C45.4985 210.298 45.4595 210.786 45.4595 211.392V226.274C45.4595 226.88 45.4985 227.378 45.5767 227.769C45.6743 228.14 45.8403 228.433 46.0747 228.647C46.3091 228.862 46.6411 229.019 47.0708 229.116C47.5005 229.194 48.0571 229.243 48.7407 229.263V229.878H38.8091V229.263C39.5122 229.243 40.0786 229.194 40.5083 229.116C40.938 229.019 41.2603 228.862 41.4751 228.647C41.7095 228.433 41.8657 228.14 41.9438 227.769C42.022 227.397 42.061 226.899 42.061 226.274V211.392ZM69.3657 214.819C69.2095 214.272 69.0532 213.804 68.897 213.413C68.7407 213.003 68.5747 212.642 68.3989 212.329C68.2427 211.997 68.0571 211.704 67.8423 211.45C67.647 211.196 67.4126 210.933 67.1392 210.659C66.4751 209.976 65.7134 209.468 64.854 209.136C64.0142 208.784 63.1157 208.608 62.1587 208.608C60.9478 208.608 59.8442 208.843 58.8481 209.312C57.8716 209.78 57.0317 210.454 56.3286 211.333C55.645 212.192 55.1177 213.237 54.7466 214.468C54.3755 215.698 54.1899 217.065 54.1899 218.569C54.1899 220.522 54.4536 222.231 54.981 223.696C55.5083 225.161 56.2603 226.304 57.2368 227.124C58.7017 228.296 60.4497 228.882 62.481 228.882C63.8677 228.882 65.147 228.618 66.3188 228.091C67.4907 227.563 68.7017 226.704 69.9517 225.513L70.5376 226.099C69.522 227.446 68.2231 228.491 66.6411 229.233C65.0786 229.976 63.3403 230.347 61.4263 230.347C59.7661 230.347 58.2524 230.073 56.8853 229.526C55.5181 228.979 54.3462 228.218 53.3696 227.241C52.3931 226.245 51.6313 225.054 51.0845 223.667C50.5571 222.28 50.2935 220.737 50.2935 219.038C50.2935 217.104 50.6255 215.366 51.2896 213.823C51.9536 212.261 52.9302 210.952 54.2192 209.897C55.2349 209.077 56.3774 208.442 57.647 207.993C58.9165 207.524 60.1958 207.29 61.4849 207.29C63.145 207.29 64.7856 207.563 66.4067 208.11C66.9536 208.306 67.3931 208.403 67.7251 208.403C68.0571 208.403 68.3403 208.306 68.5747 208.11C68.8286 207.915 69.0044 207.642 69.1021 207.29H69.8052L70.1274 214.819H69.3657ZM88.8188 217.896V211.392C88.8188 210.786 88.7798 210.308 88.7017 209.956C88.6431 209.585 88.5063 209.292 88.2915 209.077C88.0962 208.862 87.8032 208.716 87.4126 208.638C87.022 208.54 86.5044 208.462 85.8599 208.403V207.729H95.147V208.403C94.5024 208.462 93.9849 208.54 93.5942 208.638C93.2036 208.716 92.9009 208.862 92.686 209.077C92.4907 209.292 92.3638 209.585 92.3052 209.956C92.2466 210.308 92.2173 210.786 92.2173 211.392V226.274C92.2173 226.86 92.2466 227.339 92.3052 227.71C92.3833 228.062 92.5298 228.345 92.7446 228.56C92.9595 228.774 93.2524 228.931 93.6235 229.028C94.0142 229.126 94.522 229.204 95.147 229.263V229.878H85.8599V229.263C86.5044 229.224 87.022 229.165 87.4126 229.087C87.8032 228.989 88.0962 228.823 88.2915 228.589C88.5063 228.335 88.6431 227.993 88.7017 227.563C88.7798 227.134 88.8188 226.567 88.8188 225.864V219.36H78.6528V226.274C78.6528 226.86 78.6821 227.339 78.7407 227.71C78.8188 228.062 78.9653 228.345 79.1802 228.56C79.395 228.774 79.6978 228.931 80.0884 229.028C80.479 229.126 80.9868 229.204 81.6118 229.263V229.878H72.2954V229.263C72.9595 229.224 73.4868 229.165 73.8774 229.087C74.2681 228.989 74.561 228.823 74.7563 228.589C74.9712 228.335 75.1079 227.993 75.1665 227.563C75.2251 227.134 75.2544 226.567 75.2544 225.864V211.392C75.2544 210.786 75.2153 210.308 75.1372 209.956C75.0786 209.585 74.9419 209.292 74.7271 209.077C74.5317 208.862 74.2388 208.716 73.8481 208.638C73.4575 208.54 72.9399 208.462 72.2954 208.403V207.729H81.6118V208.403C80.9673 208.462 80.4497 208.54 80.0591 208.638C79.6685 208.716 79.3657 208.862 79.1509 209.077C78.9556 209.292 78.8188 209.585 78.7407 209.956C78.6821 210.308 78.6528 210.786 78.6528 211.392V217.896H88.8188ZM114.278 229.878H96.231V229.263C96.8364 229.224 97.3247 229.155 97.6958 229.058C98.0864 228.96 98.3794 228.804 98.5747 228.589C98.7896 228.374 98.936 228.081 99.0142 227.71C99.0923 227.339 99.1313 226.86 99.1313 226.274V211.392C99.1313 210.806 99.0923 210.327 99.0142 209.956C98.9556 209.585 98.8188 209.292 98.604 209.077C98.3892 208.862 98.0864 208.706 97.6958 208.608C97.3247 208.511 96.8364 208.442 96.231 208.403V207.729H113.985L114.043 212.534H113.252C113.096 211.772 112.92 211.167 112.725 210.718C112.53 210.249 112.247 209.888 111.875 209.634C111.524 209.38 111.045 209.214 110.44 209.136C109.854 209.058 109.092 209.019 108.155 209.019H103.643C103.194 209.019 102.891 209.087 102.735 209.224C102.598 209.36 102.53 209.673 102.53 210.161V217.573H107.657C108.34 217.573 108.897 217.534 109.327 217.456C109.756 217.378 110.098 217.231 110.352 217.017C110.625 216.782 110.831 216.46 110.967 216.05C111.104 215.64 111.231 215.093 111.348 214.409H112.139V222.173H111.348C111.231 221.47 111.104 220.913 110.967 220.503C110.831 220.073 110.635 219.751 110.381 219.536C110.127 219.302 109.786 219.146 109.356 219.067C108.926 218.989 108.36 218.95 107.657 218.95H102.53V227.212C102.53 227.544 102.549 227.788 102.588 227.944C102.627 228.101 102.696 228.218 102.793 228.296C102.95 228.394 103.321 228.481 103.907 228.56C104.512 228.618 105.225 228.647 106.045 228.647H106.983C108.174 228.647 109.17 228.589 109.971 228.472C110.792 228.354 111.485 228.13 112.051 227.798C112.637 227.466 113.145 227.017 113.575 226.45C114.004 225.884 114.424 225.142 114.834 224.224H115.801L114.278 229.878ZM138.272 229.878H132.881L124.913 219.565L123.067 219.653V226.274C123.067 226.86 123.096 227.339 123.155 227.71C123.233 228.081 123.379 228.384 123.594 228.618C123.809 228.833 124.112 228.989 124.502 229.087C124.893 229.165 125.411 229.224 126.055 229.263V229.878H116.797V229.263C117.422 229.204 117.92 229.126 118.292 229.028C118.682 228.931 118.975 228.765 119.17 228.53C119.366 228.296 119.493 227.974 119.551 227.563C119.61 227.134 119.639 226.567 119.639 225.864V211.392C119.639 210.806 119.61 210.337 119.551 209.985C119.493 209.614 119.366 209.321 119.17 209.106C118.975 208.892 118.682 208.735 118.292 208.638C117.92 208.54 117.422 208.462 116.797 208.403V207.729H126.026C127.667 207.729 129.131 207.954 130.42 208.403C131.729 208.833 132.696 209.419 133.321 210.161C133.731 210.61 134.034 211.138 134.229 211.743C134.424 212.329 134.522 212.964 134.522 213.647C134.522 215.171 134.043 216.372 133.086 217.251C132.149 218.13 130.616 218.784 128.487 219.214L135.372 227.71C135.84 228.257 136.28 228.638 136.69 228.853C137.12 229.067 137.647 229.204 138.272 229.263V229.878ZM123.067 218.423C123.848 218.403 124.522 218.374 125.088 218.335C125.674 218.296 126.182 218.237 126.612 218.159C127.061 218.062 127.471 217.944 127.842 217.808C128.213 217.671 128.594 217.495 128.985 217.28C129.59 216.948 130.059 216.46 130.391 215.815C130.723 215.151 130.889 214.399 130.889 213.56C130.889 211.978 130.391 210.825 129.395 210.103C128.418 209.36 126.856 208.989 124.708 208.989C124.043 208.989 123.604 209.077 123.389 209.253C123.174 209.409 123.067 209.722 123.067 210.19V218.423ZM162.208 229.878H153.682V229.263C153.975 229.263 154.219 229.263 154.415 229.263C154.61 229.243 154.766 229.224 154.883 229.204C155.02 229.165 155.137 229.136 155.235 229.116C155.333 229.077 155.43 229.028 155.528 228.97C155.684 228.872 155.801 228.755 155.879 228.618C155.977 228.462 156.026 228.306 156.026 228.149C156.026 227.603 155.811 226.841 155.381 225.864L153.975 222.671H145.245L143.692 226.567C143.614 226.782 143.545 227.007 143.487 227.241C143.448 227.456 143.428 227.671 143.428 227.886C143.428 228.335 143.604 228.677 143.956 228.911C144.307 229.146 144.893 229.263 145.713 229.263V229.878H139.063V229.263C139.473 229.243 139.825 229.175 140.118 229.058C140.411 228.94 140.704 228.696 140.997 228.325C141.29 227.935 141.602 227.388 141.934 226.685C142.286 225.962 142.725 224.985 143.252 223.755L150.196 207.349H150.84L159.19 226.333C159.463 226.958 159.698 227.456 159.893 227.827C160.108 228.198 160.323 228.491 160.538 228.706C160.752 228.901 160.987 229.038 161.241 229.116C161.514 229.194 161.836 229.243 162.208 229.263V229.878ZM153.536 221.323L149.668 212.095L145.801 221.323H153.536ZM182.334 230.259L167.54 211.86V224.956C167.54 225.815 167.579 226.519 167.657 227.065C167.754 227.593 167.92 228.013 168.155 228.325C168.389 228.638 168.711 228.862 169.122 228.999C169.532 229.136 170.059 229.224 170.704 229.263V229.878H162.852V229.263C163.536 229.204 164.083 229.116 164.493 228.999C164.922 228.862 165.245 228.638 165.459 228.325C165.694 228.013 165.85 227.593 165.928 227.065C166.006 226.519 166.045 225.815 166.045 224.956V210.249C165.713 209.858 165.43 209.546 165.196 209.312C164.961 209.058 164.727 208.872 164.493 208.755C164.258 208.618 164.014 208.53 163.76 208.491C163.506 208.433 163.204 208.403 162.852 208.403V207.729H168.565L181.426 223.931V212.651C181.426 210.62 181.104 209.37 180.459 208.901C180.206 208.745 179.922 208.638 179.61 208.579C179.317 208.501 178.858 208.442 178.233 208.403V207.729H186.055V208.403C185.43 208.442 184.961 208.511 184.649 208.608C184.356 208.706 184.102 208.833 183.887 208.989C183.223 209.419 182.891 210.64 182.891 212.651V230.259H182.334ZM206.592 224.077L204.952 229.878H186.993V229.263C187.598 229.224 188.086 229.155 188.458 229.058C188.848 228.96 189.141 228.804 189.336 228.589C189.551 228.374 189.698 228.081 189.776 227.71C189.854 227.339 189.893 226.86 189.893 226.274V211.392C189.893 210.806 189.854 210.327 189.776 209.956C189.717 209.585 189.581 209.292 189.366 209.077C189.151 208.862 188.848 208.706 188.458 208.608C188.086 208.511 187.598 208.442 186.993 208.403V207.729H196.397V208.403C195.733 208.442 195.196 208.511 194.786 208.608C194.375 208.687 194.063 208.843 193.848 209.077C193.633 209.292 193.487 209.585 193.409 209.956C193.331 210.327 193.292 210.806 193.292 211.392V227.212C193.292 227.505 193.321 227.749 193.379 227.944C193.458 228.12 193.604 228.257 193.819 228.354C194.034 228.452 194.327 228.521 194.698 228.56C195.069 228.579 195.567 228.589 196.192 228.589H198.418C199.844 228.589 201.026 228.423 201.963 228.091C202.92 227.759 203.702 227.251 204.307 226.567C204.542 226.294 204.766 225.952 204.981 225.542C205.215 225.132 205.469 224.644 205.743 224.077H206.592ZM225.459 229.878H207.413V229.263C208.018 229.224 208.506 229.155 208.877 229.058C209.268 228.96 209.561 228.804 209.756 228.589C209.971 228.374 210.118 228.081 210.196 227.71C210.274 227.339 210.313 226.86 210.313 226.274V211.392C210.313 210.806 210.274 210.327 210.196 209.956C210.137 209.585 210 209.292 209.786 209.077C209.571 208.862 209.268 208.706 208.877 208.608C208.506 208.511 208.018 208.442 207.413 208.403V207.729H225.167L225.225 212.534H224.434C224.278 211.772 224.102 211.167 223.907 210.718C223.711 210.249 223.428 209.888 223.057 209.634C222.706 209.38 222.227 209.214 221.622 209.136C221.036 209.058 220.274 209.019 219.336 209.019H214.825C214.375 209.019 214.073 209.087 213.917 209.224C213.78 209.36 213.711 209.673 213.711 210.161V217.573H218.838C219.522 217.573 220.079 217.534 220.508 217.456C220.938 217.378 221.28 217.231 221.534 217.017C221.807 216.782 222.012 216.46 222.149 216.05C222.286 215.64 222.413 215.093 222.53 214.409H223.321V222.173H222.53C222.413 221.47 222.286 220.913 222.149 220.503C222.012 220.073 221.817 219.751 221.563 219.536C221.309 219.302 220.967 219.146 220.538 219.067C220.108 218.989 219.542 218.95 218.838 218.95H213.711V227.212C213.711 227.544 213.731 227.788 213.77 227.944C213.809 228.101 213.877 228.218 213.975 228.296C214.131 228.394 214.502 228.481 215.088 228.56C215.694 228.618 216.407 228.647 217.227 228.647H218.165C219.356 228.647 220.352 228.589 221.153 228.472C221.973 228.354 222.667 228.13 223.233 227.798C223.819 227.466 224.327 227.017 224.756 226.45C225.186 225.884 225.606 225.142 226.016 224.224H226.983L225.459 229.878ZM251.124 218.657C250.635 218.696 250.235 218.765 249.922 218.862C249.629 218.94 249.395 219.077 249.219 219.272C249.063 219.448 248.956 219.702 248.897 220.034C248.838 220.347 248.809 220.747 248.809 221.235V228.003C248.477 228.296 247.989 228.589 247.344 228.882C246.7 229.155 245.977 229.409 245.176 229.644C244.395 229.858 243.584 230.024 242.745 230.142C241.924 230.278 241.153 230.347 240.43 230.347C238.575 230.347 236.856 230.044 235.274 229.438C233.711 228.833 232.374 227.944 231.26 226.772C230.323 225.776 229.629 224.644 229.18 223.374C228.731 222.104 228.506 220.659 228.506 219.038C228.506 217.319 228.79 215.747 229.356 214.321C229.922 212.876 230.704 211.636 231.7 210.601C232.715 209.565 233.917 208.755 235.303 208.169C236.709 207.583 238.252 207.29 239.932 207.29C241.456 207.29 242.979 207.544 244.502 208.052C245.147 208.286 245.645 208.403 245.997 208.403C246.348 208.403 246.661 208.296 246.934 208.081C247.208 207.866 247.393 207.603 247.491 207.29H248.194L248.487 214.351H247.725C247.51 213.843 247.315 213.403 247.139 213.032C246.963 212.642 246.778 212.3 246.583 212.007C246.407 211.694 246.221 211.421 246.026 211.187C245.831 210.933 245.606 210.688 245.352 210.454C244.024 209.224 242.413 208.608 240.518 208.608C239.307 208.608 238.184 208.843 237.149 209.312C236.133 209.78 235.264 210.454 234.542 211.333C233.858 212.173 233.311 213.286 232.901 214.673C232.491 216.04 232.286 217.476 232.286 218.979C232.286 220.542 232.491 221.948 232.901 223.198C233.311 224.429 233.897 225.474 234.659 226.333C235.42 227.192 236.338 227.856 237.413 228.325C238.506 228.794 239.737 229.028 241.104 229.028C241.709 229.028 242.276 228.979 242.803 228.882C243.35 228.765 243.829 228.618 244.239 228.442C244.649 228.267 244.971 228.062 245.206 227.827C245.44 227.573 245.557 227.31 245.557 227.036V221.616C245.557 221.011 245.528 220.522 245.469 220.151C245.411 219.78 245.274 219.497 245.059 219.302C244.864 219.087 244.571 218.94 244.18 218.862C243.79 218.765 243.262 218.696 242.598 218.657V218.042H251.124V218.657ZM270.02 229.878H251.973V229.263C252.579 229.224 253.067 229.155 253.438 229.058C253.829 228.96 254.122 228.804 254.317 228.589C254.532 228.374 254.678 228.081 254.756 227.71C254.834 227.339 254.874 226.86 254.874 226.274V211.392C254.874 210.806 254.834 210.327 254.756 209.956C254.698 209.585 254.561 209.292 254.346 209.077C254.131 208.862 253.829 208.706 253.438 208.608C253.067 208.511 252.579 208.442 251.973 208.403V207.729H269.727L269.786 212.534H268.995C268.838 211.772 268.663 211.167 268.467 210.718C268.272 210.249 267.989 209.888 267.618 209.634C267.266 209.38 266.788 209.214 266.182 209.136C265.596 209.058 264.834 209.019 263.897 209.019H259.385C258.936 209.019 258.633 209.087 258.477 209.224C258.34 209.36 258.272 209.673 258.272 210.161V217.573H263.399C264.083 217.573 264.639 217.534 265.069 217.456C265.499 217.378 265.84 217.231 266.094 217.017C266.368 216.782 266.573 216.46 266.709 216.05C266.846 215.64 266.973 215.093 267.09 214.409H267.881V222.173H267.09C266.973 221.47 266.846 220.913 266.709 220.503C266.573 220.073 266.377 219.751 266.124 219.536C265.87 219.302 265.528 219.146 265.098 219.067C264.668 218.989 264.102 218.95 263.399 218.95H258.272V227.212C258.272 227.544 258.292 227.788 258.331 227.944C258.37 228.101 258.438 228.218 258.536 228.296C258.692 228.394 259.063 228.481 259.649 228.56C260.254 228.618 260.967 228.647 261.788 228.647H262.725C263.917 228.647 264.913 228.589 265.713 228.472C266.534 228.354 267.227 228.13 267.793 227.798C268.379 227.466 268.887 227.017 269.317 226.45C269.747 225.884 270.167 225.142 270.577 224.224H271.543L270.02 229.878ZM291.875 230.259L277.081 211.86V224.956C277.081 225.815 277.12 226.519 277.198 227.065C277.295 227.593 277.461 228.013 277.696 228.325C277.93 228.638 278.252 228.862 278.663 228.999C279.073 229.136 279.6 229.224 280.245 229.263V229.878H272.393V229.263C273.077 229.204 273.624 229.116 274.034 228.999C274.463 228.862 274.786 228.638 275 228.325C275.235 228.013 275.391 227.593 275.469 227.065C275.547 226.519 275.586 225.815 275.586 224.956V210.249C275.254 209.858 274.971 209.546 274.737 209.312C274.502 209.058 274.268 208.872 274.034 208.755C273.799 208.618 273.555 208.53 273.301 208.491C273.047 208.433 272.745 208.403 272.393 208.403V207.729H278.106L290.967 223.931V212.651C290.967 210.62 290.645 209.37 290 208.901C289.747 208.745 289.463 208.638 289.151 208.579C288.858 208.501 288.399 208.442 287.774 208.403V207.729H295.596V208.403C294.971 208.442 294.502 208.511 294.19 208.608C293.897 208.706 293.643 208.833 293.428 208.989C292.764 209.419 292.432 210.64 292.432 212.651V230.259H291.875ZM300.342 226.567C300.811 226.567 301.231 226.753 301.602 227.124C301.993 227.495 302.188 227.935 302.188 228.442C302.188 228.931 301.993 229.36 301.602 229.731C301.231 230.083 300.792 230.259 300.284 230.259C299.776 230.259 299.336 230.083 298.965 229.731C298.614 229.36 298.438 228.921 298.438 228.413C298.438 227.886 298.624 227.446 298.995 227.095C299.366 226.743 299.815 226.567 300.342 226.567ZM322.93 229.878H304.883V229.263C305.489 229.224 305.977 229.155 306.348 229.058C306.739 228.96 307.032 228.804 307.227 228.589C307.442 228.374 307.588 228.081 307.667 227.71C307.745 227.339 307.784 226.86 307.784 226.274V211.392C307.784 210.806 307.745 210.327 307.667 209.956C307.608 209.585 307.471 209.292 307.256 209.077C307.042 208.862 306.739 208.706 306.348 208.608C305.977 208.511 305.489 208.442 304.883 208.403V207.729H322.637L322.696 212.534H321.905C321.749 211.772 321.573 211.167 321.377 210.718C321.182 210.249 320.899 209.888 320.528 209.634C320.176 209.38 319.698 209.214 319.092 209.136C318.506 209.058 317.745 209.019 316.807 209.019H312.295C311.846 209.019 311.543 209.087 311.387 209.224C311.25 209.36 311.182 209.673 311.182 210.161V217.573H316.309C316.993 217.573 317.549 217.534 317.979 217.456C318.409 217.378 318.75 217.231 319.004 217.017C319.278 216.782 319.483 216.46 319.62 216.05C319.756 215.64 319.883 215.093 320 214.409H320.792V222.173H320C319.883 221.47 319.756 220.913 319.62 220.503C319.483 220.073 319.288 219.751 319.034 219.536C318.78 219.302 318.438 219.146 318.008 219.067C317.579 218.989 317.012 218.95 316.309 218.95H311.182V227.212C311.182 227.544 311.202 227.788 311.241 227.944C311.28 228.101 311.348 228.218 311.446 228.296C311.602 228.394 311.973 228.481 312.559 228.56C313.165 228.618 313.877 228.647 314.698 228.647H315.635C316.827 228.647 317.823 228.589 318.624 228.472C319.444 228.354 320.137 228.13 320.704 227.798C321.29 227.466 321.797 227.017 322.227 226.45C322.657 225.884 323.077 225.142 323.487 224.224H324.454L322.93 229.878ZM345.313 221.382C345.313 222.671 345.225 223.745 345.049 224.604C344.893 225.444 344.62 226.216 344.229 226.919C342.901 229.204 340.401 230.347 336.729 230.347C333.877 230.347 331.768 229.653 330.401 228.267C329.034 226.88 328.35 224.731 328.35 221.821V211.392C328.35 210.786 328.311 210.298 328.233 209.927C328.174 209.556 328.038 209.263 327.823 209.048C327.627 208.833 327.334 208.687 326.944 208.608C326.553 208.511 326.026 208.442 325.362 208.403V207.729H334.825V208.403C334.141 208.462 333.594 208.54 333.184 208.638C332.793 208.716 332.491 208.862 332.276 209.077C332.061 209.292 331.915 209.585 331.836 209.956C331.778 210.308 331.749 210.786 331.749 211.392V222.085C331.749 223.14 331.817 224.009 331.954 224.692C332.09 225.376 332.305 225.981 332.598 226.509C333.516 228.091 335.157 228.882 337.52 228.882C338.79 228.882 339.922 228.647 340.918 228.179C341.915 227.71 342.637 227.075 343.086 226.274C343.36 225.747 343.545 225.142 343.643 224.458C343.76 223.755 343.819 222.827 343.819 221.675V212.651C343.819 211.812 343.78 211.128 343.702 210.601C343.624 210.073 343.467 209.653 343.233 209.341C343.018 209.028 342.706 208.804 342.295 208.667C341.905 208.53 341.387 208.442 340.743 208.403V207.729H348.477V208.403C347.793 208.481 347.237 208.589 346.807 208.726C346.397 208.862 346.075 209.077 345.84 209.37C345.625 209.663 345.479 210.073 345.401 210.601C345.342 211.128 345.313 211.812 345.313 212.651V221.382Z" fill="#002D62"/>
<path d="M35.2935 214.409H34.4731C34.3364 213.921 34.1997 213.491 34.063 213.12C33.9458 212.749 33.7993 212.417 33.6235 212.124C33.4673 211.812 33.2915 211.538 33.0962 211.304C32.9009 211.05 32.6763 210.786 32.4224 210.513C31.2505 209.282 29.8833 208.667 28.3208 208.667C27.2856 208.667 26.4458 208.94 25.8013 209.487C25.1763 210.034 24.8638 210.776 24.8638 211.714C24.8638 212.632 25.2446 213.491 26.0063 214.292C26.7681 215.093 28.0181 215.972 29.7563 216.929C31.9829 218.14 33.5845 219.321 34.561 220.474C35.5571 221.626 36.0552 222.886 36.0552 224.253C36.0552 225.112 35.8794 225.913 35.5278 226.655C35.1763 227.397 34.6978 228.042 34.0923 228.589C33.4868 229.136 32.7642 229.565 31.9243 229.878C31.0845 230.19 30.186 230.347 29.229 230.347C28.5454 230.347 27.8716 230.288 27.2075 230.171C26.5435 230.054 25.8989 229.858 25.2739 229.585C24.9419 229.468 24.6392 229.38 24.3657 229.321C24.0923 229.243 23.8677 229.204 23.6919 229.204C23.438 229.204 23.2231 229.312 23.0474 229.526C22.8716 229.741 22.7739 230.005 22.7544 230.317H22.022L21.0259 223.228H21.7876C22.6274 225.278 23.5845 226.782 24.6587 227.739C25.7329 228.677 27.0317 229.146 28.5552 229.146C29.7856 229.146 30.772 228.804 31.5142 228.12C32.2759 227.437 32.6567 226.538 32.6567 225.425C32.6567 224.995 32.6079 224.614 32.5103 224.282C32.4321 223.95 32.3149 223.667 32.1587 223.433C31.7681 222.808 31.1431 222.163 30.2837 221.499C29.4438 220.835 28.4282 220.171 27.2368 219.507C26.2993 219.019 25.4985 218.53 24.8345 218.042C24.1704 217.554 23.6235 217.046 23.1938 216.519C22.7837 215.991 22.481 215.444 22.2856 214.878C22.0903 214.312 21.9927 213.696 21.9927 213.032C21.9927 211.177 22.6372 209.731 23.9263 208.696C24.4731 208.247 25.0786 207.905 25.7427 207.671C26.4067 207.417 27.061 207.29 27.7056 207.29C28.2915 207.29 28.8774 207.358 29.4634 207.495C30.0688 207.612 30.6841 207.788 31.3091 208.022C31.6216 208.159 31.9048 208.257 32.1587 208.315C32.4126 208.374 32.6274 208.403 32.8032 208.403C33.3501 208.403 33.7017 208.032 33.8579 207.29H34.561L35.2935 214.409ZM42.061 211.392C42.061 210.767 42.022 210.269 41.9438 209.897C41.8853 209.526 41.7388 209.233 41.5044 209.019C41.27 208.804 40.938 208.657 40.5083 208.579C40.0786 208.501 39.5122 208.442 38.8091 208.403V207.729H48.7407V208.403C48.0376 208.423 47.4712 208.481 47.0415 208.579C46.6118 208.657 46.2798 208.804 46.0454 209.019C45.811 209.233 45.6548 209.536 45.5767 209.927C45.4985 210.298 45.4595 210.786 45.4595 211.392V226.274C45.4595 226.88 45.4985 227.378 45.5767 227.769C45.6743 228.14 45.8403 228.433 46.0747 228.647C46.3091 228.862 46.6411 229.019 47.0708 229.116C47.5005 229.194 48.0571 229.243 48.7407 229.263V229.878H38.8091V229.263C39.5122 229.243 40.0786 229.194 40.5083 229.116C40.938 229.019 41.2603 228.862 41.4751 228.647C41.7095 228.433 41.8657 228.14 41.9438 227.769C42.022 227.397 42.061 226.899 42.061 226.274V211.392ZM69.3657 214.819C69.2095 214.272 69.0532 213.804 68.897 213.413C68.7407 213.003 68.5747 212.642 68.3989 212.329C68.2427 211.997 68.0571 211.704 67.8423 211.45C67.647 211.196 67.4126 210.933 67.1392 210.659C66.4751 209.976 65.7134 209.468 64.854 209.136C64.0142 208.784 63.1157 208.608 62.1587 208.608C60.9478 208.608 59.8442 208.843 58.8481 209.312C57.8716 209.78 57.0317 210.454 56.3286 211.333C55.645 212.192 55.1177 213.237 54.7466 214.468C54.3755 215.698 54.1899 217.065 54.1899 218.569C54.1899 220.522 54.4536 222.231 54.981 223.696C55.5083 225.161 56.2603 226.304 57.2368 227.124C58.7017 228.296 60.4497 228.882 62.481 228.882C63.8677 228.882 65.147 228.618 66.3188 228.091C67.4907 227.563 68.7017 226.704 69.9517 225.513L70.5376 226.099C69.522 227.446 68.2231 228.491 66.6411 229.233C65.0786 229.976 63.3403 230.347 61.4263 230.347C59.7661 230.347 58.2524 230.073 56.8853 229.526C55.5181 228.979 54.3462 228.218 53.3696 227.241C52.3931 226.245 51.6313 225.054 51.0845 223.667C50.5571 222.28 50.2935 220.737 50.2935 219.038C50.2935 217.104 50.6255 215.366 51.2896 213.823C51.9536 212.261 52.9302 210.952 54.2192 209.897C55.2349 209.077 56.3774 208.442 57.647 207.993C58.9165 207.524 60.1958 207.29 61.4849 207.29C63.145 207.29 64.7856 207.563 66.4067 208.11C66.9536 208.306 67.3931 208.403 67.7251 208.403C68.0571 208.403 68.3403 208.306 68.5747 208.11C68.8286 207.915 69.0044 207.642 69.1021 207.29H69.8052L70.1274 214.819H69.3657ZM88.8188 217.896V211.392C88.8188 210.786 88.7798 210.308 88.7017 209.956C88.6431 209.585 88.5063 209.292 88.2915 209.077C88.0962 208.862 87.8032 208.716 87.4126 208.638C87.022 208.54 86.5044 208.462 85.8599 208.403V207.729H95.147V208.403C94.5024 208.462 93.9849 208.54 93.5942 208.638C93.2036 208.716 92.9009 208.862 92.686 209.077C92.4907 209.292 92.3638 209.585 92.3052 209.956C92.2466 210.308 92.2173 210.786 92.2173 211.392V226.274C92.2173 226.86 92.2466 227.339 92.3052 227.71C92.3833 228.062 92.5298 228.345 92.7446 228.56C92.9595 228.774 93.2524 228.931 93.6235 229.028C94.0142 229.126 94.522 229.204 95.147 229.263V229.878H85.8599V229.263C86.5044 229.224 87.022 229.165 87.4126 229.087C87.8032 228.989 88.0962 228.823 88.2915 228.589C88.5063 228.335 88.6431 227.993 88.7017 227.563C88.7798 227.134 88.8188 226.567 88.8188 225.864V219.36H78.6528V226.274C78.6528 226.86 78.6821 227.339 78.7407 227.71C78.8188 228.062 78.9653 228.345 79.1802 228.56C79.395 228.774 79.6978 228.931 80.0884 229.028C80.479 229.126 80.9868 229.204 81.6118 229.263V229.878H72.2954V229.263C72.9595 229.224 73.4868 229.165 73.8774 229.087C74.2681 228.989 74.561 228.823 74.7563 228.589C74.9712 228.335 75.1079 227.993 75.1665 227.563C75.2251 227.134 75.2544 226.567 75.2544 225.864V211.392C75.2544 210.786 75.2153 210.308 75.1372 209.956C75.0786 209.585 74.9419 209.292 74.7271 209.077C74.5317 208.862 74.2388 208.716 73.8481 208.638C73.4575 208.54 72.9399 208.462 72.2954 208.403V207.729H81.6118V208.403C80.9673 208.462 80.4497 208.54 80.0591 208.638C79.6685 208.716 79.3657 208.862 79.1509 209.077C78.9556 209.292 78.8188 209.585 78.7407 209.956C78.6821 210.308 78.6528 210.786 78.6528 211.392V217.896H88.8188ZM114.278 229.878H96.231V229.263C96.8364 229.224 97.3247 229.155 97.6958 229.058C98.0864 228.96 98.3794 228.804 98.5747 228.589C98.7896 228.374 98.936 228.081 99.0142 227.71C99.0923 227.339 99.1313 226.86 99.1313 226.274V211.392C99.1313 210.806 99.0923 210.327 99.0142 209.956C98.9556 209.585 98.8188 209.292 98.604 209.077C98.3892 208.862 98.0864 208.706 97.6958 208.608C97.3247 208.511 96.8364 208.442 96.231 208.403V207.729H113.985L114.043 212.534H113.252C113.096 211.772 112.92 211.167 112.725 210.718C112.53 210.249 112.247 209.888 111.875 209.634C111.524 209.38 111.045 209.214 110.44 209.136C109.854 209.058 109.092 209.019 108.155 209.019H103.643C103.194 209.019 102.891 209.087 102.735 209.224C102.598 209.36 102.53 209.673 102.53 210.161V217.573H107.657C108.34 217.573 108.897 217.534 109.327 217.456C109.756 217.378 110.098 217.231 110.352 217.017C110.625 216.782 110.831 216.46 110.967 216.05C111.104 215.64 111.231 215.093 111.348 214.409H112.139V222.173H111.348C111.231 221.47 111.104 220.913 110.967 220.503C110.831 220.073 110.635 219.751 110.381 219.536C110.127 219.302 109.786 219.146 109.356 219.067C108.926 218.989 108.36 218.95 107.657 218.95H102.53V227.212C102.53 227.544 102.549 227.788 102.588 227.944C102.627 228.101 102.696 228.218 102.793 228.296C102.95 228.394 103.321 228.481 103.907 228.56C104.512 228.618 105.225 228.647 106.045 228.647H106.983C108.174 228.647 109.17 228.589 109.971 228.472C110.792 228.354 111.485 228.13 112.051 227.798C112.637 227.466 113.145 227.017 113.575 226.45C114.004 225.884 114.424 225.142 114.834 224.224H115.801L114.278 229.878ZM138.272 229.878H132.881L124.913 219.565L123.067 219.653V226.274C123.067 226.86 123.096 227.339 123.155 227.71C123.233 228.081 123.379 228.384 123.594 228.618C123.809 228.833 124.112 228.989 124.502 229.087C124.893 229.165 125.411 229.224 126.055 229.263V229.878H116.797V229.263C117.422 229.204 117.92 229.126 118.292 229.028C118.682 228.931 118.975 228.765 119.17 228.53C119.366 228.296 119.493 227.974 119.551 227.563C119.61 227.134 119.639 226.567 119.639 225.864V211.392C119.639 210.806 119.61 210.337 119.551 209.985C119.493 209.614 119.366 209.321 119.17 209.106C118.975 208.892 118.682 208.735 118.292 208.638C117.92 208.54 117.422 208.462 116.797 208.403V207.729H126.026C127.667 207.729 129.131 207.954 130.42 208.403C131.729 208.833 132.696 209.419 133.321 210.161C133.731 210.61 134.034 211.138 134.229 211.743C134.424 212.329 134.522 212.964 134.522 213.647C134.522 215.171 134.043 216.372 133.086 217.251C132.149 218.13 130.616 218.784 128.487 219.214L135.372 227.71C135.84 228.257 136.28 228.638 136.69 228.853C137.12 229.067 137.647 229.204 138.272 229.263V229.878ZM123.067 218.423C123.848 218.403 124.522 218.374 125.088 218.335C125.674 218.296 126.182 218.237 126.612 218.159C127.061 218.062 127.471 217.944 127.842 217.808C128.213 217.671 128.594 217.495 128.985 217.28C129.59 216.948 130.059 216.46 130.391 215.815C130.723 215.151 130.889 214.399 130.889 213.56C130.889 211.978 130.391 210.825 129.395 210.103C128.418 209.36 126.856 208.989 124.708 208.989C124.043 208.989 123.604 209.077 123.389 209.253C123.174 209.409 123.067 209.722 123.067 210.19V218.423ZM162.208 229.878H153.682V229.263C153.975 229.263 154.219 229.263 154.415 229.263C154.61 229.243 154.766 229.224 154.883 229.204C155.02 229.165 155.137 229.136 155.235 229.116C155.333 229.077 155.43 229.028 155.528 228.97C155.684 228.872 155.801 228.755 155.879 228.618C155.977 228.462 156.026 228.306 156.026 228.149C156.026 227.603 155.811 226.841 155.381 225.864L153.975 222.671H145.245L143.692 226.567C143.614 226.782 143.545 227.007 143.487 227.241C143.448 227.456 143.428 227.671 143.428 227.886C143.428 228.335 143.604 228.677 143.956 228.911C144.307 229.146 144.893 229.263 145.713 229.263V229.878H139.063V229.263C139.473 229.243 139.825 229.175 140.118 229.058C140.411 228.94 140.704 228.696 140.997 228.325C141.29 227.935 141.602 227.388 141.934 226.685C142.286 225.962 142.725 224.985 143.252 223.755L150.196 207.349H150.84L159.19 226.333C159.463 226.958 159.698 227.456 159.893 227.827C160.108 228.198 160.323 228.491 160.538 228.706C160.752 228.901 160.987 229.038 161.241 229.116C161.514 229.194 161.836 229.243 162.208 229.263V229.878ZM153.536 221.323L149.668 212.095L145.801 221.323H153.536ZM182.334 230.259L167.54 211.86V224.956C167.54 225.815 167.579 226.519 167.657 227.065C167.754 227.593 167.92 228.013 168.155 228.325C168.389 228.638 168.711 228.862 169.122 228.999C169.532 229.136 170.059 229.224 170.704 229.263V229.878H162.852V229.263C163.536 229.204 164.083 229.116 164.493 228.999C164.922 228.862 165.245 228.638 165.459 228.325C165.694 228.013 165.85 227.593 165.928 227.065C166.006 226.519 166.045 225.815 166.045 224.956V210.249C165.713 209.858 165.43 209.546 165.196 209.312C164.961 209.058 164.727 208.872 164.493 208.755C164.258 208.618 164.014 208.53 163.76 208.491C163.506 208.433 163.204 208.403 162.852 208.403V207.729H168.565L181.426 223.931V212.651C181.426 210.62 181.104 209.37 180.459 208.901C180.206 208.745 179.922 208.638 179.61 208.579C179.317 208.501 178.858 208.442 178.233 208.403V207.729H186.055V208.403C185.43 208.442 184.961 208.511 184.649 208.608C184.356 208.706 184.102 208.833 183.887 208.989C183.223 209.419 182.891 210.64 182.891 212.651V230.259H182.334ZM206.592 224.077L204.952 229.878H186.993V229.263C187.598 229.224 188.086 229.155 188.458 229.058C188.848 228.96 189.141 228.804 189.336 228.589C189.551 228.374 189.698 228.081 189.776 227.71C189.854 227.339 189.893 226.86 189.893 226.274V211.392C189.893 210.806 189.854 210.327 189.776 209.956C189.717 209.585 189.581 209.292 189.366 209.077C189.151 208.862 188.848 208.706 188.458 208.608C188.086 208.511 187.598 208.442 186.993 208.403V207.729H196.397V208.403C195.733 208.442 195.196 208.511 194.786 208.608C194.375 208.687 194.063 208.843 193.848 209.077C193.633 209.292 193.487 209.585 193.409 209.956C193.331 210.327 193.292 210.806 193.292 211.392V227.212C193.292 227.505 193.321 227.749 193.379 227.944C193.458 228.12 193.604 228.257 193.819 228.354C194.034 228.452 194.327 228.521 194.698 228.56C195.069 228.579 195.567 228.589 196.192 228.589H198.418C199.844 228.589 201.026 228.423 201.963 228.091C202.92 227.759 203.702 227.251 204.307 226.567C204.542 226.294 204.766 225.952 204.981 225.542C205.215 225.132 205.469 224.644 205.743 224.077H206.592ZM225.459 229.878H207.413V229.263C208.018 229.224 208.506 229.155 208.877 229.058C209.268 228.96 209.561 228.804 209.756 228.589C209.971 228.374 210.118 228.081 210.196 227.71C210.274 227.339 210.313 226.86 210.313 226.274V211.392C210.313 210.806 210.274 210.327 210.196 209.956C210.137 209.585 210 209.292 209.786 209.077C209.571 208.862 209.268 208.706 208.877 208.608C208.506 208.511 208.018 208.442 207.413 208.403V207.729H225.167L225.225 212.534H224.434C224.278 211.772 224.102 211.167 223.907 210.718C223.711 210.249 223.428 209.888 223.057 209.634C222.706 209.38 222.227 209.214 221.622 209.136C221.036 209.058 220.274 209.019 219.336 209.019H214.825C214.375 209.019 214.073 209.087 213.917 209.224C213.78 209.36 213.711 209.673 213.711 210.161V217.573H218.838C219.522 217.573 220.079 217.534 220.508 217.456C220.938 217.378 221.28 217.231 221.534 217.017C221.807 216.782 222.012 216.46 222.149 216.05C222.286 215.64 222.413 215.093 222.53 214.409H223.321V222.173H222.53C222.413 221.47 222.286 220.913 222.149 220.503C222.012 220.073 221.817 219.751 221.563 219.536C221.309 219.302 220.967 219.146 220.538 219.067C220.108 218.989 219.542 218.95 218.838 218.95H213.711V227.212C213.711 227.544 213.731 227.788 213.77 227.944C213.809 228.101 213.877 228.218 213.975 228.296C214.131 228.394 214.502 228.481 215.088 228.56C215.694 228.618 216.407 228.647 217.227 228.647H218.165C219.356 228.647 220.352 228.589 221.153 228.472C221.973 228.354 222.667 228.13 223.233 227.798C223.819 227.466 224.327 227.017 224.756 226.45C225.186 225.884 225.606 225.142 226.016 224.224H226.983L225.459 229.878ZM251.124 218.657C250.635 218.696 250.235 218.765 249.922 218.862C249.629 218.94 249.395 219.077 249.219 219.272C249.063 219.448 248.956 219.702 248.897 220.034C248.838 220.347 248.809 220.747 248.809 221.235V228.003C248.477 228.296 247.989 228.589 247.344 228.882C246.7 229.155 245.977 229.409 245.176 229.644C244.395 229.858 243.584 230.024 242.745 230.142C241.924 230.278 241.153 230.347 240.43 230.347C238.575 230.347 236.856 230.044 235.274 229.438C233.711 228.833 232.374 227.944 231.26 226.772C230.323 225.776 229.629 224.644 229.18 223.374C228.731 222.104 228.506 220.659 228.506 219.038C228.506 217.319 228.79 215.747 229.356 214.321C229.922 212.876 230.704 211.636 231.7 210.601C232.715 209.565 233.917 208.755 235.303 208.169C236.709 207.583 238.252 207.29 239.932 207.29C241.456 207.29 242.979 207.544 244.502 208.052C245.147 208.286 245.645 208.403 245.997 208.403C246.348 208.403 246.661 208.296 246.934 208.081C247.208 207.866 247.393 207.603 247.491 207.29H248.194L248.487 214.351H247.725C247.51 213.843 247.315 213.403 247.139 213.032C246.963 212.642 246.778 212.3 246.583 212.007C246.407 211.694 246.221 211.421 246.026 211.187C245.831 210.933 245.606 210.688 245.352 210.454C244.024 209.224 242.413 208.608 240.518 208.608C239.307 208.608 238.184 208.843 237.149 209.312C236.133 209.78 235.264 210.454 234.542 211.333C233.858 212.173 233.311 213.286 232.901 214.673C232.491 216.04 232.286 217.476 232.286 218.979C232.286 220.542 232.491 221.948 232.901 223.198C233.311 224.429 233.897 225.474 234.659 226.333C235.42 227.192 236.338 227.856 237.413 228.325C238.506 228.794 239.737 229.028 241.104 229.028C241.709 229.028 242.276 228.979 242.803 228.882C243.35 228.765 243.829 228.618 244.239 228.442C244.649 228.267 244.971 228.062 245.206 227.827C245.44 227.573 245.557 227.31 245.557 227.036V221.616C245.557 221.011 245.528 220.522 245.469 220.151C245.411 219.78 245.274 219.497 245.059 219.302C244.864 219.087 244.571 218.94 244.18 218.862C243.79 218.765 243.262 218.696 242.598 218.657V218.042H251.124V218.657ZM270.02 229.878H251.973V229.263C252.579 229.224 253.067 229.155 253.438 229.058C253.829 228.96 254.122 228.804 254.317 228.589C254.532 228.374 254.678 228.081 254.756 227.71C254.834 227.339 254.874 226.86 254.874 226.274V211.392C254.874 210.806 254.834 210.327 254.756 209.956C254.698 209.585 254.561 209.292 254.346 209.077C254.131 208.862 253.829 208.706 253.438 208.608C253.067 208.511 252.579 208.442 251.973 208.403V207.729H269.727L269.786 212.534H268.995C268.838 211.772 268.663 211.167 268.467 210.718C268.272 210.249 267.989 209.888 267.618 209.634C267.266 209.38 266.788 209.214 266.182 209.136C265.596 209.058 264.834 209.019 263.897 209.019H259.385C258.936 209.019 258.633 209.087 258.477 209.224C258.34 209.36 258.272 209.673 258.272 210.161V217.573H263.399C264.083 217.573 264.639 217.534 265.069 217.456C265.499 217.378 265.84 217.231 266.094 217.017C266.368 216.782 266.573 216.46 266.709 216.05C266.846 215.64 266.973 215.093 267.09 214.409H267.881V222.173H267.09C266.973 221.47 266.846 220.913 266.709 220.503C266.573 220.073 266.377 219.751 266.124 219.536C265.87 219.302 265.528 219.146 265.098 219.067C264.668 218.989 264.102 218.95 263.399 218.95H258.272V227.212C258.272 227.544 258.292 227.788 258.331 227.944C258.37 228.101 258.438 228.218 258.536 228.296C258.692 228.394 259.063 228.481 259.649 228.56C260.254 228.618 260.967 228.647 261.788 228.647H262.725C263.917 228.647 264.913 228.589 265.713 228.472C266.534 228.354 267.227 228.13 267.793 227.798C268.379 227.466 268.887 227.017 269.317 226.45C269.747 225.884 270.167 225.142 270.577 224.224H271.543L270.02 229.878ZM291.875 230.259L277.081 211.86V224.956C277.081 225.815 277.12 226.519 277.198 227.065C277.295 227.593 277.461 228.013 277.696 228.325C277.93 228.638 278.252 228.862 278.663 228.999C279.073 229.136 279.6 229.224 280.245 229.263V229.878H272.393V229.263C273.077 229.204 273.624 229.116 274.034 228.999C274.463 228.862 274.786 228.638 275 228.325C275.235 228.013 275.391 227.593 275.469 227.065C275.547 226.519 275.586 225.815 275.586 224.956V210.249C275.254 209.858 274.971 209.546 274.737 209.312C274.502 209.058 274.268 208.872 274.034 208.755C273.799 208.618 273.555 208.53 273.301 208.491C273.047 208.433 272.745 208.403 272.393 208.403V207.729H278.106L290.967 223.931V212.651C290.967 210.62 290.645 209.37 290 208.901C289.747 208.745 289.463 208.638 289.151 208.579C288.858 208.501 288.399 208.442 287.774 208.403V207.729H295.596V208.403C294.971 208.442 294.502 208.511 294.19 208.608C293.897 208.706 293.643 208.833 293.428 208.989C292.764 209.419 292.432 210.64 292.432 212.651V230.259H291.875ZM300.342 226.567C300.811 226.567 301.231 226.753 301.602 227.124C301.993 227.495 302.188 227.935 302.188 228.442C302.188 228.931 301.993 229.36 301.602 229.731C301.231 230.083 300.792 230.259 300.284 230.259C299.776 230.259 299.336 230.083 298.965 229.731C298.614 229.36 298.438 228.921 298.438 228.413C298.438 227.886 298.624 227.446 298.995 227.095C299.366 226.743 299.815 226.567 300.342 226.567ZM322.93 229.878H304.883V229.263C305.489 229.224 305.977 229.155 306.348 229.058C306.739 228.96 307.032 228.804 307.227 228.589C307.442 228.374 307.588 228.081 307.667 227.71C307.745 227.339 307.784 226.86 307.784 226.274V211.392C307.784 210.806 307.745 210.327 307.667 209.956C307.608 209.585 307.471 209.292 307.256 209.077C307.042 208.862 306.739 208.706 306.348 208.608C305.977 208.511 305.489 208.442 304.883 208.403V207.729H322.637L322.696 212.534H321.905C321.749 211.772 321.573 211.167 321.377 210.718C321.182 210.249 320.899 209.888 320.528 209.634C320.176 209.38 319.698 209.214 319.092 209.136C318.506 209.058 317.745 209.019 316.807 209.019H312.295C311.846 209.019 311.543 209.087 311.387 209.224C311.25 209.36 311.182 209.673 311.182 210.161V217.573H316.309C316.993 217.573 317.549 217.534 317.979 217.456C318.409 217.378 318.75 217.231 319.004 217.017C319.278 216.782 319.483 216.46 319.62 216.05C319.756 215.64 319.883 215.093 320 214.409H320.792V222.173H320C319.883 221.47 319.756 220.913 319.62 220.503C319.483 220.073 319.288 219.751 319.034 219.536C318.78 219.302 318.438 219.146 318.008 219.067C317.579 218.989 317.012 218.95 316.309 218.95H311.182V227.212C311.182 227.544 311.202 227.788 311.241 227.944C311.28 228.101 311.348 228.218 311.446 228.296C311.602 228.394 311.973 228.481 312.559 228.56C313.165 228.618 313.877 228.647 314.698 228.647H315.635C316.827 228.647 317.823 228.589 318.624 228.472C319.444 228.354 320.137 228.13 320.704 227.798C321.29 227.466 321.797 227.017 322.227 226.45C322.657 225.884 323.077 225.142 323.487 224.224H324.454L322.93 229.878ZM345.313 221.382C345.313 222.671 345.225 223.745 345.049 224.604C344.893 225.444 344.62 226.216 344.229 226.919C342.901 229.204 340.401 230.347 336.729 230.347C333.877 230.347 331.768 229.653 330.401 228.267C329.034 226.88 328.35 224.731 328.35 221.821V211.392C328.35 210.786 328.311 210.298 328.233 209.927C328.174 209.556 328.038 209.263 327.823 209.048C327.627 208.833 327.334 208.687 326.944 208.608C326.553 208.511 326.026 208.442 325.362 208.403V207.729H334.825V208.403C334.141 208.462 333.594 208.54 333.184 208.638C332.793 208.716 332.491 208.862 332.276 209.077C332.061 209.292 331.915 209.585 331.836 209.956C331.778 210.308 331.749 210.786 331.749 211.392V222.085C331.749 223.14 331.817 224.009 331.954 224.692C332.09 225.376 332.305 225.981 332.598 226.509C333.516 228.091 335.157 228.882 337.52 228.882C338.79 228.882 339.922 228.647 340.918 228.179C341.915 227.71 342.637 227.075 343.086 226.274C343.36 225.747 343.545 225.142 343.643 224.458C343.76 223.755 343.819 222.827 343.819 221.675V212.651C343.819 211.812 343.78 211.128 343.702 210.601C343.624 210.073 343.467 209.653 343.233 209.341C343.018 209.028 342.706 208.804 342.295 208.667C341.905 208.53 341.387 208.442 340.743 208.403V207.729H348.477V208.403C347.793 208.481 347.237 208.589 346.807 208.726C346.397 208.862 346.075 209.077 345.84 209.37C345.625 209.663 345.479 210.073 345.401 210.601C345.342 211.128 345.313 211.812 345.313 212.651V221.382Z" fill="#002D62"/>
</g>
</svg>
